<svg xmlns="http://www.w3.org/2000/svg" xmlns:xlink="http://www.w3.org/1999/xlink" width="380" height="435" viewBox="0 0 380 435">
    <defs>
        <path id="a" d="M.611 110.782c0 60.985 49.588 110.436 110.757 110.436 61.177 0 110.766-49.451 110.766-110.436C222.134 49.797 172.545.356 111.368.356 50.199.356.61 49.796.61 110.782z"/>
        <path id="c" d="M.611 110.782c0 60.985 49.588 110.436 110.757 110.436 61.177 0 110.766-49.451 110.766-110.436C222.134 49.797 172.545.356 111.368.356 50.199.356.61 49.796.61 110.782"/>
        <path id="e" d="M.611 110.782c0 60.985 49.588 110.436 110.757 110.436 61.177 0 110.766-49.451 110.766-110.436C222.134 49.797 172.545.356 111.368.356 50.199.356.61 49.796.61 110.782"/>
        <path id="g" d="M.611 110.782c0 60.985 49.588 110.436 110.757 110.436 61.177 0 110.766-49.451 110.766-110.436C222.134 49.797 172.545.356 111.368.356 50.199.356.61 49.796.61 110.782"/>
        <path id="i" d="M.611 110.782c0 60.985 49.588 110.436 110.757 110.436 61.177 0 110.766-49.451 110.766-110.436C222.134 49.797 172.545.356 111.368.356 50.199.356.61 49.796.61 110.782"/>
        <path id="k" d="M.611 110.782c0 60.985 49.588 110.436 110.757 110.436 61.177 0 110.766-49.451 110.766-110.436C222.134 49.797 172.545.356 111.368.356 50.199.356.61 49.796.61 110.782"/>
        <path id="m" d="M.611 110.782c0 60.985 49.588 110.436 110.757 110.436 61.177 0 110.766-49.451 110.766-110.436C222.134 49.797 172.545.356 111.368.356 50.199.356.61 49.796.61 110.782"/>
        <path id="o" d="M.611 110.782c0 60.985 49.588 110.436 110.757 110.436 61.177 0 110.766-49.451 110.766-110.436C222.134 49.797 172.545.356 111.368.356 50.199.356.61 49.796.61 110.782"/>
        <path id="q" d="M.611 110.782c0 60.985 49.588 110.436 110.757 110.436 61.177 0 110.766-49.451 110.766-110.436C222.134 49.797 172.545.356 111.368.356 50.199.356.61 49.796.61 110.782"/>
        <path id="s" d="M.611 110.782c0 60.985 49.588 110.436 110.757 110.436 61.177 0 110.766-49.451 110.766-110.436C222.134 49.797 172.545.356 111.368.356 50.199.356.61 49.796.61 110.782"/>
        <path id="u" d="M.611 110.782c0 60.985 49.588 110.436 110.757 110.436 61.177 0 110.766-49.451 110.766-110.436C222.134 49.797 172.545.356 111.368.356 50.199.356.61 49.796.61 110.782"/>
        <path id="w" d="M.611 110.782c0 60.985 49.588 110.436 110.757 110.436 61.177 0 110.766-49.451 110.766-110.436C222.134 49.797 172.545.356 111.368.356 50.199.356.61 49.796.61 110.782"/>
        <path id="y" d="M.611 110.782c0 60.985 49.588 110.436 110.757 110.436 61.177 0 110.766-49.451 110.766-110.436C222.134 49.797 172.545.356 111.368.356 50.199.356.61 49.796.61 110.782"/>
        <path id="A" d="M22.39.1C10.266.1.403 9.962.403 22.086c0 12.128 9.863 21.994 21.985 21.994h178.16c-2.497-6.35-3.96-13.887-3.96-21.994 0-8.108 1.463-15.64 3.96-21.988H22.39z"/>
        <path id="C" d="M22.39.1C10.266.1.403 9.962.403 22.086c0 12.128 9.863 21.994 21.985 21.994h178.16c-2.497-6.35-3.96-13.887-3.96-21.994 0-8.108 1.463-15.64 3.96-21.988H22.39z"/>
    </defs>
    <g fill="none" fill-rule="evenodd">
        <path fill="#A4C2D1" d="M53.29 89.105C31.536 108.493 11.54 138.3 14.867 171.638c2.713 27.188 20.468 49.848 21.44 77.207 1.213 34.19-24.122 63.513-21.621 97.603 1.459 19.89 12.358 36.917 24.84 49.398 15.768 15.769 34.797 26.345 54.663 30.382 40.454 8.22 81.754-10.378 122.408-3.986 18.12 2.85 35.693 10.625 53.917 11.949 16.504 1.2 33.213-3.048 47.995-12.2 27.637-17.11 48.381-55.375 43.309-93.643-2.777-20.952-12.522-39.255-20.666-57.917-8.145-18.662-15.025-39.985-11.378-60.677 1.824-10.355 6.171-19.707 8.73-29.81 9.222-36.408-6.222-76.217-27.33-104.015-14.597-19.226-32.614-35.335-53.2-41.307-33.863-9.823-66.52 2.103-99.592 8.11-38.292 6.954-73.038 17.81-105.09 46.373" opacity=".2"/>
        <path fill="#E6E6E6" d="M359.679 200.247c-13.743 29.124-37.999 51.162-68.31 62.03-16.827 6.048-34.408 8.239-51.707 6.652-12.703-1.17-25.236-4.423-37.214-9.666l4.564-9.697c.65.273 1.316.515 1.972.776-.126.018-.26.06-.384.075 2.017.81 4.052 1.558 6.103 2.246l.234-.152c2.208.733 4.439 1.415 6.705 2.01l-1.241-.115a109.84 109.84 0 0 0 15.689 3.129c.293-.037.586-.098.88-.139 4.26.497 8.583.78 12.976.78 12.76 0 25.003-2.178 36.41-6.137l.02.044c.547-.193 1.082-.397 1.621-.597l.078-.029c.456-.169.92-.33 1.37-.503a.995.995 0 0 0-.013-.03c41.67-15.863 71.28-56.07 71.28-103.183 0-42.609-24.221-79.554-59.673-97.969l4.003-8.504c27.651 13.955 48.584 37.547 59.087 66.814 10.868 30.307 9.294 63.047-4.45 92.165m11.9-95.19c-11.21-31.228-33.51-56.42-62.955-71.402L314.77 20.6c.52.083 1.045.16 1.59.16 5.56 0 10.067-4.508 10.067-10.068 0-5.558-4.508-10.068-10.067-10.068-5.56 0-10.065 4.51-10.065 10.068 0 3.37 1.67 6.335 4.212 8.163l-6.008 12.766c-.863-.399-1.784-.822-2.258-1.032l-3.495 7.584c.373.166 1.3.613 2.18 1.04l-4.009 8.518a110.128 110.128 0 0 0-25.713-8.36l-.038-.009a112.033 112.033 0 0 0-6.409-1.034c-.478-.065-.95-.172-1.43-.231-.058.007-.118.02-.176.027-4.333-.512-8.732-.807-13.204-.807-12.935 0-25.34 2.231-36.88 6.294l-.03-.069c-1.017.36-2.043.738-3.075 1.134.01.026.024.05.034.075-26.586 10.26-48.207 30.436-60.284 55.998l-.01-.004a119.827 119.827 0 0 0-1.344 2.974l.006.003a109.738 109.738 0 0 0-9.174 44.02c0 13.448 2.417 26.331 6.832 38.252l-.03.008c.378 1.018.77 2.037 1.179 3.056l.056-.017a110.657 110.657 0 0 0 28.636 40.778c.137.208.263.429.402.636 3.985 3.539 8.22 6.78 12.68 9.705l-.84-.792a111.036 111.036 0 0 0 5.88 3.662l.04.27a112.467 112.467 0 0 0 5.725 3.111c-.07-.103-.128-.232-.198-.339 1.08.55 2.162 1.096 3.26 1.612l-4.537 9.64c-.915-.457-1.878-.94-2.197-1.1l-3.803 8.02c.871.434 3.639 1.758 4.15 1.992 13.418 6.115 27.503 9.87 41.78 11.177 1.39.13 2.784.189 4.178.271v30.367h5.842c-34.299.673-62.318 15.4-67.144 34.472h139.142c-4.834-19.072-32.85-33.799-67.146-34.472h4.528V277.69a129.644 129.644 0 0 0 36-7.391c32.487-11.656 58.483-35.272 73.21-66.488 14.722-31.204 16.406-66.27 4.765-98.753" style="mix-blend-mode:multiply"/>
        <path fill="#F1EDF0" d="M239.767 308.05h15.222v-31.945h-15.222z"/>
        <path fill="#00546E" d="M196.237 266.905l-4.164-1.962L309.105 16.276l4.161 1.96z"/>
        <path fill="#F1EDF0" d="M368.965 105.057C357.473 73.046 334.35 47.345 303.8 32.518c-.44-.214-3.22-1.507-4.176-1.93l-3.494 7.584c.76.34 3.835 1.85 4.082 1.969 28.76 13.793 50.517 37.89 61.301 67.941 10.869 30.307 9.294 63.047-4.45 92.165-13.742 29.124-37.998 51.163-68.31 62.03-16.826 6.049-34.408 8.239-51.706 6.652-13.508-1.244-26.833-4.813-39.491-10.66-.316-.147-3.461-1.731-4.095-2.046l-3.803 8.02a278.03 278.03 0 0 0 4.15 1.992c13.419 6.115 27.504 9.87 41.78 11.177 18.532 1.716 37.372-.647 55.401-7.114 32.487-11.655 58.483-35.272 73.208-66.488 14.723-31.203 16.407-66.27 4.767-98.753"/>
        <path fill="#FE5F55" d="M323.811 10.69c0 5.561-4.508 10.07-10.067 10.07-5.56 0-10.065-4.509-10.065-10.07 0-5.558 4.504-10.067 10.065-10.067 5.56 0 10.067 4.509 10.067 10.067"/>
        <path fill="#F1EDF0" d="M317.608 342.522c-4.95-19.523-34.17-34.535-69.572-34.535-35.406 0-64.63 15.012-69.57 34.535h139.142z"/>
        <path fill="#A4C2D1" d="M358.096 147.74c0 60.986-49.588 110.436-110.765 110.436-61.168 0-110.757-49.45-110.757-110.435 0-60.986 49.589-110.425 110.757-110.425 61.177 0 110.765 49.439 110.765 110.425"/>
        <g transform="translate(135.963 36.959)">
            <mask id="b" fill="#fff">
                <use xlink:href="#a"/>
            </mask>
            <path fill="#CFDBE5" d="M184.531 138.884l-1.191 2.856-40.023-18.116 1.195-2.719c6.108-13.91 11.213-27.671 15.17-40.902l.27-.628 1-1.751 2.004.254a113.866 113.866 0 0 0 29.865-.044l3.344-.447.059 3.373c.323 18.929-3.72 39.029-11.693 58.124zm-3.899 8.612c-9.08 18.586-21.513 34.892-35.96 47.158l-2.576 2.188-1.87-2.814a113.358 113.358 0 0 0-19.679-22.487l-1.924-1.687 1.36-2.168c7.323-11.68 14.298-24.598 20.734-38.394l1.255-2.692 40.02 18.116-1.36 2.78zm-64.525 20.287l-2.622-1.952a116.453 116.453 0 0 0-21.504-12.67 116.33 116.33 0 0 0-23.712-7.799l-3.195-.682.947-3.127c3.833-12.673 8.77-25.914 14.68-39.354l1.222-2.78 57.07 25.834-1.283 2.754c-6.19 13.287-12.88 25.736-19.879 37l-1.724 2.776zM62.58 141.7l-.73 2.453-2.54-.333a113.871 113.871 0 0 0-29.876.045l-3.344.448-.058-3.373c-.326-18.94 3.719-39.044 11.696-58.136l1.193-2.854 40.025 18.12-1.196 2.719c-6.127 13.955-11.23 27.72-15.17 40.911zM41.627 74.197c9.075-18.59 21.51-34.89 35.957-47.143l2.572-2.18 1.87 2.806a113.898 113.898 0 0 0 19.682 22.475l1.5 1.316-.937 2.545c-7.324 11.686-14.295 24.6-20.72 38.386l-1.257 2.692L40.27 76.977l1.357-2.78zm64.528-20.278l2.62 1.954a115.74 115.74 0 0 0 21.505 12.665 116.058 116.058 0 0 0 23.713 7.803l3.199.68-.948 3.13c-3.834 12.662-8.775 25.9-14.68 39.344l-1.223 2.781-57.07-25.834 1.283-2.752c6.192-13.297 12.878-25.744 19.875-36.995l1.726-2.776zm81.291 86.473c8.452-20.125 12.606-41.255 12.014-61.106l-.075-2.502 2.448-.524a115.604 115.604 0 0 0 13.01-3.605c-.377-1.026-.769-2.046-1.174-3.054a111.931 111.931 0 0 1-11.173 3.162l-3.306.752-.347-3.372a108.883 108.883 0 0 0-1.38-9.372c-2.397-12.472-6.732-23.42-12.887-32.554a109.817 109.817 0 0 0-12.657-9.692l.895.844c12.651 11.936 20.774 30.352 22.868 51.858l.279 2.868-2.854.397a110.604 110.604 0 0 1-28.353.306l-3.432-.407.88-3.343c2.181-8.267 3.821-16.172 4.875-23.492 1.46-10.15 1.697-18.754.702-25.57l-.964-6.617a111.408 111.408 0 0 0-5.726-3.11c5.949 8.685 5.249 30.55-2.27 58.843l-.73 2.744-2.779-.572a112.582 112.582 0 0 1-23.683-7.714 112.511 112.511 0 0 1-21.418-12.703l-2.267-1.71 1.58-2.359c16.299-24.32 32.262-39.275 42.713-40.536A113.535 113.535 0 0 0 146.115 6l-5.61 3.644c-5.766 3.746-12.075 9.6-18.746 17.401-4.782 5.597-9.637 12.045-14.427 19.165l-1.93 2.867-2.572-2.31a110.736 110.736 0 0 1-18.484-21.516l-1.583-2.408 2.34-1.682c17.547-12.614 36.74-18.666 54.048-17.028l1.225.116a109.454 109.454 0 0 0-15.628-3.112c-10.913 1.396-22 5.365-32.96 11.799a111.227 111.227 0 0 0-7.954 5.148l-2.762 1.96-1.618-2.976a111.02 111.02 0 0 1-4.996-10.485c-1.016.359-2.042.737-3.075 1.134a118.25 118.25 0 0 0 5.884 12.165l1.218 2.185-1.929 1.592c-15.304 12.652-28.44 29.713-37.985 49.342l-1.277 2.628-26.17-11.844a106.25 106.25 0 0 0-1.345 2.975l26.166 11.847-1.131 2.695c-8.452 20.126-12.606 41.256-12.01 61.104l.075 2.503-2.447.524c-4.35.933-8.716 2.145-13.02 3.61.379 1.017.771 2.036 1.18 3.055a113.455 113.455 0 0 1 11.17-3.163l3.3-.75.355 3.364c.337 3.198.802 6.35 1.384 9.37 2.396 12.488 6.731 23.444 12.885 32.576a109.76 109.76 0 0 0 12.68 9.705l-.922-.868c-12.648-11.93-20.77-30.35-22.873-51.863l-.28-2.868 2.855-.398a110.753 110.753 0 0 1 28.358-.304l3.433.407-.88 3.342c-2.194 8.336-3.837 16.24-4.88 23.496-1.454 10.17-1.691 18.772-.698 25.57l.967 6.627a112.42 112.42 0 0 0 5.726 3.111c-5.954-8.683-5.252-30.551 2.274-58.855l.73-2.741 2.779.57a112.594 112.594 0 0 1 23.678 7.71 112.489 112.489 0 0 1 21.413 12.703l2.263 1.711-1.577 2.356c-16.295 24.335-32.26 39.295-42.71 40.551 2.017.81 4.051 1.56 6.102 2.247l5.63-3.648c5.765-3.738 12.071-9.588 18.74-17.39 4.8-5.618 9.654-12.072 14.425-19.18l1.93-2.871 2.571 2.311a110.346 110.346 0 0 1 18.49 21.522l1.579 2.408-2.337 1.68c-17.534 12.614-36.72 18.658-54.045 17.031l-1.285-.12a109.851 109.851 0 0 0 15.69 3.129c10.91-1.399 21.997-5.37 32.963-11.807a110.223 110.223 0 0 0 7.954-5.142l2.764-1.958 1.615 2.978a113.89 113.89 0 0 1 4.99 10.477 118.56 118.56 0 0 0 3.069-1.13 117.696 117.696 0 0 0-5.874-12.169l-1.214-2.182 1.925-1.593c15.307-12.657 28.44-29.725 37.984-49.358l1.278-2.63 26.168 11.844a120.162 120.162 0 0 0 1.345-2.976l-26.164-11.844 1.131-2.694z" mask="url(#b)" opacity=".5"/>
            <g mask="url(#b)" opacity=".4">
                <mask id="d" fill="#fff">
                    <use xlink:href="#c"/>
                </mask>
                <path fill="#FFF" d="M219.53 98.721c-1.122-.849-1.313-1.898-.388-3.164 1.905.635 1.642 2.735.388 3.164m-20.063.216c.852-1.081 1.754-1.933 2.81-2.087.049-3.665-1.568-6.954-.874-10.765 2.828-1.52 5.974-1.55 9.776 1.429-.518.815-.056 1.394-.978 2.29-1.52-1.087-2.81-1.148-3.985-.618-.08 3.866 1.421 6.87 3.006 9.709-.388 1.387-1.415-.161-2.172-.425-1.409 2.512.932 5.317-1.69 7.174-3.57-.1-5.537-4.117-5.893-6.707m-31.123 37.822c-3.174-5.227-2.625-11.263-3.124-17.069 3.46-6.096.126-12.24 2.779-17.169.575.369 1.143.738 1.723 1.103.439 4.447 1.636 8.72-.01 13.614-.434 3.755 2.697 9.508-.369 11.907.78 2.289-.07 4.943-1 7.614m-40.282 32.431c-1.1-1.168.628-1.56 1.207-2.641 1.453.551-.728 2.533-1.207 2.641m6.703-19.516c1.413-3.053 3.292-3.902 5.876-1.566-.573 2.073-4.218 4.497-5.876 1.566m-6.447 1.7c.534 1.354-1.3 3.227-1.057 4.667-.823-1.213-.672-3.85 1.057-4.666m47.188-74.168c-1.15-.328-.576-1.05-1.48-1.43-1.42-1.005-2.16.997-3.644-.404 1.539-2.227 5.01-6.371 9.068-7.294 3.275 1.458 2.12 3.883 3.046 5.852 1.198.931 2.149.837 3.197 1.077 1.194-1.048-.936-1.367.07-2.369 1.346-.24 2.762-.017 4.447 1.385-.614 1.726-1.726 1.12-2.58 1.744-.124 3.88 5.917 6.41 3.249 10.837-7.12-1.28-8.352-10.566-15.373-9.398m-3.973 19.813c-2.246-.422-2.195-2.584-4.021-3.565-1.015-.543-2.344-.073-3.414-.739-4.998-3.091-6.277-10.155-12.544-11.46-1.076.508-1.814 2.598-2.9 2.992-4.501-4.64-5.983-9.954-10.574-14.573 1.956-1.075 3.79-2.912 3.544-5.505-3.9-2.2-6.963-3.888-10.536-6.285-3.361-2.241-6.149-.829-9.34-2.127-1.458-.574-4.525-1.91-4.495-4.339 3.194-.243 7.095 2.729 10.122 1.653 1.999-4.982 7.607-1.174 10.812-4.73 2.72 3.452 5.347 3.244 8.67 3.149.523 5.106 4.016 9.582 5.224 14.546-.421 1.216-1.15 1.03-1.66 1.852 1.566 1.31 3.927-.309 3.144-1.865.59-.864 1.587.052 2.498.635-.582-4.504-5.327-8.114-3.16-13.215 3.463 2.51 3.348 8.323 6.432 11.913-2.718 4.132-.197 7.14-1.194 10.91.35.214.703.44 1.038.66 1.337.19 2.322-1.138 3.735-.509 1.562-1.922-1.578-2.823.148-4.777 1.418 1.46 3.625-.485 4.103 1.185.33 3.866-2.799 8.482 1.896 11.432 1.327 1.14 2.114-.223 3.418.728.15.942.638 1.837 1.17 2.698 1.674.897 2.984.104 4.791 1.63-.29 3.956-4.401 5.814-6.907 7.706m-1.638-57.917c.926-.901.06-1.406.982-2.288 1.358-.56 3.022.312 4.295-.641.413-1.263-1.139-2.134-.723-3.393 2.336-4.206 6.614.533 9.138-2.871 1.235.632 3.004.831 2.869 2.327-1.697 1.781-4.201-.261-5.995 1.012-5.655 6.888 5.721 6.483 6.752 10.657-3.062-.923-6.755-4.745-9.241-3.012-.063.901 3.965 1.118 1.87 3.133-1.558.312-1.02-1.51-2.526-2.105-1.534-.254-2.728 1.053-3.804 2.896-3.253.367-4.867-3.501-8.676-3.147-.678-2.578-5.616-2.516-4.955-5.12 3.65 2.29 6.757 2.03 10.014 2.552m55.108 10.938c-3.966-2.41-7.868-3.856-12.586-4.503-.749-1.144 2.337-1.425.642-2.512a50.783 50.783 0 0 1-1.365-.881c-1.796.111-.414 2.815-1.778 2.746-2.383-1.88-4.39-2.027-6.021-.458-1.124-.758-1.349-1.685-2.867-2.336-1.094.672 1.257 2.025-.203 1.815-2.299-1.478-2.42-3.42-1.794-5.52 2.902 1.413 5.305 5.475 7.892 3.606-.027-5.829-10.154-9.607-10.565-14.568-6.244-4.743-12.133-5.546-18.628-8.09-2.025 2.788-6.656 2.08-9.791 3.917-3.207-2.057-5.774-1.118-8.66-1.667-4.845 5.503-.53 9.117 4.584 8.768.122 1.835.763 3.579-.246 5.668-.943-.184-1.755.136-2.865-.86.58-.922 1.402-1.881 1.202-2.63-1.601-1.054-2.93-.802-4.185-.268-.608 1.415-.405 2.642-1.738 4.221-1.422-.578-2.818-1.113-4.356-2.31-4.251 1.214-9.745 2.81-13.95-.215-.74.241-1.287 1.342-2.263.493-1.664-.698-1.875-2.565-3.2-1.09 1.886 2.318 3.256 8.589-1.764 9.555-4.187-1.846-7.182-6.68-10.76-5.938-2.42 4.826-5.49 4.878-6.534 9.407 2.56 1.212 3.883 2.688 2.794 4.699-3.827 3.266-9.29-.976-12.5 5.097-7.366.095-14.307 2.298-20.891 6.016.769 6.372-6.912 8.397-9.488 14.788.923 3.543 3.176 6.797 1.198 10.967 2.587 3.476 1.56 8.462 5.064 11.027 2.678 1.98 7.417 1.11 9.725 5.288 3.618.317 7.244.658 11.51 4.005.371 1.496-.743 3.327.428 4.645 1.467 1.296 2.618 1.123 3.998 2.088 3.02 4.936-4.043 6.347-5.503 10.068-.624 1.623.847 4.526.902 6.904.145 5.308-2.163 9.226-3.734 14.128-3.423 2.387-8.146 3.345-10.062 8.098-1.09 2.7.265 6.794-.747 10.222-.892 3.059-3.26 5.82-3.7 8.802-.494 3.236 1.023 7.333-.398 10.436-2.034 1.172-2.125 3.566-1.278 5.002 11.845 6.876 22.51 8.265 30.83-1.07 4.42 2.515 8.612-1.338 8.963-6.387 4.584-2.075 10.086.094 14.71-1.72 5.304-6.384 4.52-11.44 7.773-17.353 11.294-8.325 27.403-1.776 36.474-15.922-4.24-1.993-15.524-3.525-11.152-9.114 5.769 2.855 13.749 4.375 19.683 3.417 5.775 2.551 10.314-.568 15.022-2.974.092-3.565-3.78-6.27-2.778-10.044-2.363.898-4.824 1.356-7.953-1.225 2.454-4.872-3.492-7.912-.445-12.927.684-.043 1.486.481 2.163.415 1.37 4.414.956 11.454 8.371 12.7-1.109 5.799 7.977 8.718 13.36 12.472.202 2.612 1.047 5.084 2.516 7.44-1.345.824-1.024 2.067-.517 3.277 13.088-31.563 15.678-66.598 7.461-99.615" mask="url(#d)"/>
                <mask id="f" fill="#fff">
                    <use xlink:href="#e"/>
                </mask>
                <path fill="#FFF" d="M-42.826-22.938c.264.28.548.52.89.666.143-.647.279-1.28.43-1.933-.447.423-.9.84-1.32 1.267" mask="url(#f)"/>
                <mask id="h" fill="#fff">
                    <use xlink:href="#g"/>
                </mask>
                <path fill="#FFF" d="M-.136 36.69c-.543-.47-.4-1.103.2-1.82 1.167.527.67 1.653-.2 1.82m49.631-98.335c-1.343.183-4.85-2.476-6.421-3.657.22-.341.45-.67.67-1.019 1.793.497 3.81 3.244 5.751 4.675M26.322-43.01c-.136-1.314 1.497-3.204 2.927-1.519-.77 1.473-1.672 2.301-2.927 1.52m7.985 16.306c-4.04-.487-5.14-4.584-8.591-5.532 2.77-.394 11.511.342 8.59 5.532m-1.333 8.872c-1.537.538-4.567.21-5.683-1.723 1.688-.367 3.768 1.04 5.683 1.723m4.821-3.712c-.302.465-.582.918-.884 1.377-2.258-2.184-3.645-.437-5.334-.033-1.444-1.618 1.51-3.72 1.963-4.56 2.045.485 2.77 2.41 4.255 3.216m2.358 5.405c-1.017 1.513-3.153-.576-3.885-1.517 1.038-.696 2.538.724 3.885 1.517m-18.844-7.737c2.986-2.627 6.12-4.497 10.165-2.223-3.772-1.036-6.312 3.621-10.165 2.223m69.838-8.076c-.22.327-.59-.007-.912-.1.23-.317.604.007.912.1M41.451 95.986c-4.896-4.737-3.748-9.516-11.445-13.189 1.188-4.94-6.084-6.372-5.625-10.907 1.917-1.316-.016-4.328 1.813-6.602.173-4.764-5.031-6.05-7.298-9.07-1.885-2.527.14-6.066-2.621-8.003.258-1.142.708-2.327.739-3.413-2.308.964-1.097-1.791-3.21-2.563-4.326-.557-6.737-4.34-8.534-7.907-1.291-.951-2.071.42-3.414-.74.537-1.133 2.036-1.17.98-2.28-2.112.71-4.539-.053-7.053-1.133-1.881.407-3.336 2.711-5.527 1.788-.574-2.813-3.715-4.513-6.66-4.764-1.204-1.81-1.383-3.837-.991-5.994 1.876-1.821 3.784-3.462 5.566-5.644-.157-3.238-4.901-3.653-7.02-6.458 2.77-2.24 5.859-3.046 8.403-6.26-.167-1.984-2.9-2.256-4.474-2.885-3.081 2.547-6.725 2.589-11.118-.836-3.117-6.474 4.243-10.621 8.597-14.873 4.552-.333 10.064-.604 13.447 4.75 4.43-1.126 10.211 3.66 11.006 7.091-.608 1.277-1.376 1.835-2.101 2.53.482 1.472 1.461 2.833 3.235 4.028 1.52-2.51 2.011-4.779 3.733-7.328 5.034-1.793 10.737-.492 16.216-.25a286.66 286.66 0 0 1 2.434-3.797c.564.373 1.136.745 1.708 1.103 3.881-2.132 8.313-1.71 13.048.141 3.034-4.681 7.945-.662 12.142.013-.825.465-2.557.344-2.24 1.961 4.016-.504 9.085 3.754 12.714 1.387-1.534-1.708-5.75-.32-5.84-3.758 1.026-2.564 2.862-1.356 4.143-2.687-.086-1.716-2.225-1.247-2.644-2.665 3.352-2.35 4.934 2.885 5.74 4.664 1.795-.062-.683-2.358.421-2.17 3.404 2.74 7.329 2.377 10.051 4.03-2.425 1.261-6.75.455-8.007 2.632C75.312-2.174 76.71.174 78.79 2.384c1.344-.818 1.184-2.453 2.658-4.121-.031-.98-2.481-1.436-1.741-2.576 1.733-1.523 3.758-1.72 5.377-3.828-.075-2.164-.59-4.224-1.925-6.102.767-2.625 3.633-5.718 2.717-7.987-2.505-.991-4.326.996-6.93-.557-.312-.833-.889-1.59-.267-2.602.522-1.196 1.55-.1 2.006-1.634-1.23-1.307-1.1-2.901-1.552-4.392-2.245-.255-3.45-2.362-5.49-3.536-6.387.517-9.16 12.17-17.498 5.285-2.255 1.432-4.142 4.551-7.104 2.713-.72-3.352 2.399-3.63 4.454-5.4-5.269-2.787-3.848-7.05-8.672-9.945 1.802-1.636.997-1.793 1.303-3.543 6.819-2.167 14.9 1.355 22.502 2.804-.895.822-3.148-.198-2.938 1.53 2.006 1.72 5.433 1.989 7.115 4.076 1.785-2.177-2.025-4.688-.67-5.773 2.63 3.596 8.366 2.515 11.695.715 1.743 1.23 3.435 2.216 5.037 2.748.502 1.773.767 3.583 1.449 5.31-3.618 1.932-8.585-2.308-12.499-1.726.683 1.796 2.941 1.467 4.466 2.884.463 3.146 1.403 6.192 5.131 8.635 1.27-.7-.375-2.225.775-1.938 1.388 1.899 2.773 2.747 4.656 1.054.99-1.392-1.01-2.135.399-3.633 2.536-.18 1.128 2.598 2.547 3.59 1.962.41 4.001 1.181 5.552-.313-.007-2.075-2.877-3.516-2.708-5.634.494-1.365 1.369-.98 1.892-2.184-1.478-2.547-4.578-4.715-3.75-7.76-6.96-4.203-14.718-11.815-18.816-6.261-.21 1.028 2.64 1.388 1.178 2.697-1.942.644-4.06.392-6.248-.126-.328-1.402 1.205-.271 1.685-1.839-.485-.982-1.914-1.757-.96-3.06.862-.553 1.547-1.921 2.449-2.304 2.129.235 4.809 3.07 6.486 1.257-1.999-4.225-6.42-2.063-9.448-2.676.785-.895 1.902-.286 2.569-1.742-2.07-2.064-6.147-2.417-7.981-2.702-.467 2.06 1.533 3.13 2.679 4.15-1.52.18-2.43 1.12-2.898 2.997-.97.05-1.969.015-3.068-.514.558-1.529 1.863.404 2.355-1.399-1.356-2.588-4.265-1.815-5.797-.817-2.431-1.934-7.085-3.386-6.336-6.01 2.398 2.648 4.917 3.095 7.538 3.38 1.132-1.22-.914-1.775-.049-2.947 1.328-1.561 3.32-.128 4.749-1.322-1.104-2.314-4.717-.802-6.604-1.81-1.897-1.034-3.982-5.667-4.647-6.398-.268-.29-.548-.535-.823-.79-3.483.34-6.967.841-10.434 1.417-.556.365-1.134.666-1.767.72-.089-.128-.211-.238-.308-.358a159.18 159.18 0 0 0-16.986 4c1.561-.125 3.212.02 3.657 1.694-1.492.36-3.196-.343-4.973-1.3C1.952-56.792-18.937-45.146-37.018-28.53c-.258.235-.515.486-.775.725.195 4.073.583 8.102-.288 12.396-.74 1.102-1.824.673-2.452 2.308C-38.315-7.38-35.919.46-28.133 3.132c1.741 1.804.534 4.263 2.04 6.659 2.241 3.543 7.849 5.776 4.152 10.933 1.778 3.35 2.623 6.922 5.155 10.115 1.289-.9 2.4-2.583 4.184-1.195.398 2.956-.596 6.221-3.472 9.915-3.72 1.442-7.905.834-11.036 5.061-.968 1.098.678 1.633-.289 2.73-1.087.907-2.595-.15-3.483 1.648-.031 7.404.64 14.655-.767 22.35 1.323 5.68 6.282 6.887 5.643 12.38-.758 6.598-8.7 12.83-11.445 20.831-1.16 3.357-3.16 8.459-6.51 10.889 1.067 3.313-4.124 7.98-2.313 11.145.585-.476.895-2.296 1.663-1.848.012 1.081-.196 2.218-1.296 3.543-.456.594-1.311-.548-1.824-.189-.346 1.744-.443 2.099-1.85 3.65-.236.94 1.326 1.482.82 2.482-.638.232-1.144 1.052-1.781 1.282-.362 2.538.851 4.744.12 7.356 1.237 1.717 1.702 3.58 1.78 5.535 2.926 2.655 5.264 10.264 10.47 8.674-1.67-3.68-4.472-7.108-3.352-11.388 1.992-.369 3.62-2.361 5.498-3.278-.027-1.674-2.822-2.739-1.897-4.618 2.381-.393 4.379-2.521 6.52-4.077-1.114-.946-1.81-1.976-1.306-3.261 1.235.647 2.61 2.062 3.648 1.867.77-1.035 1.394-2.68 2.346-2.887 6.297 5.55 9.975-.898 8.425-4.79 1.602 1.13 1.919 2.558 4.034 3.566 2.969.988 4.384-2.388 7.415-3.976 3.386-1.782 8.017-.727 9.185-6.733 3.624-1.048 7.552-.629 11.937 1.856 5.143-1.894 10.282-5.85 13.506-12.71 4.742-2.75 13.692-2.338 13.664-10.663" mask="url(#h)"/>
                <mask id="j" fill="#fff">
                    <use xlink:href="#i"/>
                </mask>
                <path fill="#FFF" d="M217.4 45.335c.223-.337.438-.674.664-1.02-.724-.602-1.346-.754-1.81-.204.387.398.345.915 1.146 1.224" mask="url(#j)"/>
                <g>
                    <mask id="l" fill="#fff">
                        <use xlink:href="#k"/>
                    </mask>
                    <path fill="#FFF" d="M87.783-36.545c.508-1.544-2.499-2.332-3.065-.517 1.141.718 2.332 1.713 3.065.517" mask="url(#l)"/>
                </g>
                <g>
                    <mask id="n" fill="#fff">
                        <use xlink:href="#m"/>
                    </mask>
                    <path fill="#FFF" d="M139.755 27.01c-3.913-1.047-3.43 2.518-5.164 3.485 3.71.705 8.458 6.244 11.035 1.747-1.55-2.724-1.262-5.842-1.614-8.832.695-.394 1.466-.455 2.133-1.04-2.046-1.295.066-2.337-.734-3.404-2.517-.68-5.076-1.579-6.661 2.05-.137 2.094 2.806 3.517 1.005 5.995" mask="url(#n)"/>
                </g>
                <g>
                    <mask id="p" fill="#fff">
                        <use xlink:href="#o"/>
                    </mask>
                    <path fill="#FFF" d="M128.573 23.219c1.4 2.311 4.569 2.269 6.515 2.727.834-2.054 2.127-2.01 3.243-2.764-.687-3.573-4.381-2.564-6.85-2.956-.392 2.248-1.552 1.992-2.908 2.993" mask="url(#p)"/>
                </g>
                <g>
                    <mask id="r" fill="#fff">
                        <use xlink:href="#q"/>
                    </mask>
                    <path fill="#FFF" d="M144.318 56.189c.57-.56 1.391.015 1.805-1.27-.589-.419-1.12-.612-1.598-.542-.6.726-.757 1.343-.207 1.812" mask="url(#r)"/>
                </g>
                <g>
                    <mask id="t" fill="#fff">
                        <use xlink:href="#s"/>
                    </mask>
                    <path fill="#FFF" d="M140.639 59.653c1.964 1.94 3.633-.568 3.936-2.336-1.852-2.084-3.87.583-3.936 2.336" mask="url(#t)"/>
                </g>
                <g>
                    <mask id="v" fill="#fff">
                        <use xlink:href="#u"/>
                    </mask>
                    <path fill="#FFF" d="M150.07 67.668c-1.517-.644-3.43-3.05-4.562-1.966.573 1.351 1.093 2.726 2.897 3.803.42-1.207 1.24-.625 1.665-1.837" mask="url(#v)"/>
                </g>
                <g>
                    <mask id="x" fill="#fff">
                        <use xlink:href="#w"/>
                    </mask>
                    <path fill="#FFF" d="M172.203 89.178c.192.875 1.96 2.132 2.505.643-.915-.58-1.907-1.485-2.505-.643" mask="url(#x)"/>
                </g>
                <g>
                    <mask id="z" fill="#fff">
                        <use xlink:href="#y"/>
                    </mask>
                    <path fill="#FFF" d="M151.536 183.3c-2.654.587-4.453 2.06-7.225 2.171-2.042.066-3.769-1.185-5.452-.593-1.947.684-1.9 3.681-3.307 5.157-2.307 2.411-7.1 3.21-6.43 8.49.974 1.735 3.11 2.082 4.69 2.544 5.53-5.66 17.608-8.747 17.724-17.769" mask="url(#z)"/>
                </g>
            </g>
        </g>
        <path fill="#84DCC6" d="M270.744 186.592c1.416-3.06 3.3-3.912 5.891-1.57-.575 2.078-4.23 4.509-5.891 1.57m-6.721 19.567c-1.104-1.17.63-1.562 1.21-2.647 1.456.552-.73 2.54-1.21 2.647m.257-17.862c.535 1.357-1.306 3.235-1.06 4.679-.826-1.217-.674-3.861 1.06-4.679m39.906-14.308c.165.083.34-.266.288-.528-.022.06-.041.12-.063.182-3.182-5.24-2.631-11.293-3.131-17.114 3.469-6.112.126-12.27 2.786-17.214.348.225 3.374-3.354 3.155-5.611-1.866-.587-1.924-2.555-3.645-3.479-1.017-.544-2.35-.073-3.424-.74-5.01-3.1-6.292-10.183-12.575-11.492-1.08.51-1.82 2.607-2.908 3-4.514-4.653-5.998-9.98-10.602-14.611 1.962-1.077 3.8-2.919 3.553-5.518-3.91-2.207-6.98-3.899-10.563-6.302-3.37-2.247-6.164-.832-9.365-2.134-1.281-.503-3.801-1.596-4.384-3.498-.287-.078-2.232-.4-2.595-.404-3.71 1.738-8.427-1.14-11.319 4.333-7.385.096-14.344 2.304-20.946 6.032.77 6.388-6.93 8.42-9.513 14.827.926 3.552 3.185 6.814 1.201 10.996 2.594 3.485 1.565 8.484 5.078 11.055 2.684 1.986 7.436 1.114 9.75 5.302 3.628.318 7.264.661 11.54 4.016.373 1.5-.744 3.335.43 4.658 1.471 1.298 2.624 1.125 4.008 2.093 3.028 4.95-4.053 6.364-5.517 10.094-.625 1.628.849 4.538.904 6.922.147 5.322-2.168 9.25-3.744 14.166-3.431 2.392-8.168 3.354-10.088 8.119-1.093 2.707.265 6.811-.748 10.25-.895 3.066-3.27 5.835-3.713 8.823-.493 3.245 1.027 7.353-.397 10.464-2.04 1.176-2.13 3.576-1.281 5.015 11.876 6.895 22.57 8.288 30.91-1.072 4.432 2.522 8.635-1.342 8.987-6.403 4.597-2.082 10.113.093 14.75-1.725 5.317-6.4 4.531-11.471 7.793-17.398 11.324-8.348 27.475-1.782 36.568-15.966-4.25-1.997-15.563-3.534-11.18-9.138" opacity=".4"/>
        <g>
            <path fill="#E6E6E6" d="M202.217 152.454c.03-.422-4.837.898-5.966 2.384-1.137 1.496-2.532 3.108-3.074 4.891-.28.923-.932 1.681-1.78 2.144-.353.194-.723.403-1.102.62a8.406 8.406 0 0 0-.42-.298l-17.818 8.393a1.653 1.653 0 0 1-1.765-.222c-2.063-1.71-8.216-6.392-14.178-10.34l-1.125-1.117a14.804 14.804 0 0 1 2.813-4.814c3.509-4.032 4.359-9.602 1.72-14.038-.747-1.253-2.324-3.77-3.597-5.788a5.204 5.204 0 0 0 2.624-6.718 5.145 5.145 0 0 0-4.224-3.169c-1.298-.126-2.472.2-3.417.822a25.475 25.475 0 0 1-2.973 1.7c-1.782-.931-3.99-1.34-6.462-.963-5.824.888-9.75 5.25-9.068 9.725.027.175.053.356.08.54-.142.108-.289.205-.428.32-3.602 2.97-5.024 7.688-3.519 11.617.072.185.153.381.24.586 2.021 4.694-.108 10.264-4.978 13.254-2.231 1.37-4.048 3.126-4.426 5.3-.811 4.676 2 9.124 6.68 10.534 2.895.871 5.915.518 8.509-.687l.82 4.476c.071.39.115.783.14 1.176-.005.455-.009.915-.011 1.379a9.14 9.14 0 0 1-.514 2.39 11.506 11.506 0 0 0-.683 3.532l-.004.112c-.16 3.62-10.023 14.208-10.023 14.208s-3.383 5.396 3.186 8.808a50.357 50.357 0 0 0 .191 6.682c.088.955.188 1.88.287 2.806-.42 2.454-.886 5.075-1.388 7.747-2.331 12.419-5.427 25.866-8.209 27.992-5.348 4.085-40.303 18.358-40.303 18.358-.054.197-.087.386-.121.576-2.326.647-5.273 1.217-7.824.928-5.147-.584-5.948.645-7.656 5.051-1.709 4.407-4.99 6.12-7.511 7.638-2.522 1.517-2.666 4.106 1.595 2.351 3.401-1.401 13.545-7.93 22.862-11.46.096.102.186.205.289.305 0 0 23.737-1.011 40.91-6.589-.32.157-.506.223-.506.223 2.276-.752 4.424-1.568 6.384-2.447.319-.142.633-.287.943-.433.11-.051.218-.104.326-.156.358-.175.71-.35 1.056-.529l.086-.045c.38-.198.747-.4 1.107-.607l.223-.128a30.013 30.013 0 0 0 1.037-.63c.596-.38 1.179-.826 1.753-1.318-.894 16.02-2.21 55.178-2.21 55.178.196.149.397.279.596.404l-.337 4.083a18.79 18.79 0 0 1-1.15 5.092l-.972 2.573c-.799 2.113.643 4.403 2.893 4.589 5.835.483 15.802 1.361 18.37 1.588.421.037.858-.211.93-.627.433-2.481-6.643-4.78-11.9-7.356-2.755-1.35-3.205-5.285-2.93-9.01a8.04 8.04 0 0 0 .62-.132s8.05-37.063 12.459-47.58c4.488-10.704 6.022-32.117 6.54-44.096 2.01 2.418 3.64 4.33 4.474 5.3.187.218.436.36.702.417l.508.873c.66.884.86 1.982 1.11 3.056.506 2.188 2.254 4.107 3.8 5.516.97.883 2.732.745 5.068.433 1.147-.153 2.88-.733 1.641-1.501-1.04-.643-4.605-.404-5.48-3.821-.043-.168-.122-.607.058-.72.539-.334 1.346.824 1.953 1.265.853.62 1.632.618 1.939.322.322-.313-.452-.599-1.226-1.421-1.085-1.152-2.045-2.426-2.523-2.837-.199-.172-.87-.47-1.058-.57-.554-.293-1.457-.66-1.772-1.201l-.719-1.193a1.55 1.55 0 0 0-.002-1.61 572.42 572.42 0 0 1-7.671-12.982c.68-2.654 1.868-7.578 2.782-12.94.498-.497.937-1.012 1.27-1.553 1.796-2.904-2.393-21.377 2.266-28.042.302-.43.636-.926.973-1.463a68.24 68.24 0 0 0 6.289 2.115 5.424 5.424 0 0 0 5.047-1.133l17.266-14.725a5.117 5.117 0 0 0-.154-.527c.502-.556.918-1.1 1.296-1.592.314-.406.756-.7 1.256-.82 2.418-.586 3.465-3.244 3.543-3.326 0 0 1.151-1.138 1.752-2.202.297-.525.881-.842.704-1.184-.166-.319-1.007-.279-1.511.13-.89.724-2.039 2.002-2.517 1.782-.75-.343.262-1.49 1.332-2.743 1.069-1.255 3.774-1.018 3.907-2.88" style="mix-blend-mode:multiply"/>
            <path fill="#995B28" d="M129.148 320.625l-.709 8.566a18.79 18.79 0 0 1-1.15 5.092l-.972 2.573c-.798 2.113.643 4.402 2.894 4.59 5.835.483 15.8 1.36 18.37 1.587.42.037.857-.21.93-.627.433-2.481-6.644-4.78-11.9-7.356-4.006-1.962-3.14-9.39-2.253-13.694.334-1.626-.914-3.143-2.575-3.148a2.634 2.634 0 0 0-2.635 2.417"/>
            <path fill="#002A37" d="M145.611 172.403c3.727-2.1 5.934-5.773 6.01-9.456.065-3.16 1.335-6.287 3.566-8.852 3.51-4.032 4.359-9.601 1.72-14.037-1.36-2.285-5.483-8.767-5.483-8.767s4.858.28 2.21-2.012c-2.17-1.882-8.475-3.004-13.649 1.54-1.75 1.539-3.89 2.629-6.138 3.322a12.86 12.86 0 0 0-4.405 2.384c-3.602 2.971-5.023 7.69-3.518 11.616.071.187.152.384.24.588 2.02 4.695-.108 10.263-4.978 13.254-2.232 1.37-4.049 3.126-4.427 5.3-.811 4.676 2 9.125 6.68 10.533 3.692 1.11 7.6.254 10.548-1.858 1.608-1.151 3.51-1.93 5.456-1.925 2.062.005 4.198-.52 6.168-1.63"/>
            <path fill="#995B28" d="M193.636 154.838c-1.137 1.497-2.531 3.106-3.074 4.89-.281.924-.932 1.683-1.78 2.145-.62.34-1.283.719-1.977 1.128a1.922 1.922 0 0 0-.657 2.653c.62 1.013 2.025 1.25 2.9.445.903-.83 1.526-1.671 2.089-2.4.314-.407.755-.701 1.255-.821 2.418-.585 3.466-3.244 3.544-3.326 0 0 1.15-1.138 1.75-2.202.298-.525.883-.842.706-1.184-.166-.32-1.009-.278-1.512.131-.889.724-2.038 2-2.517 1.782-.75-.345.263-1.49 1.332-2.745 1.07-1.255 3.774-1.018 3.907-2.88.03-.421-4.836.898-5.966 2.384"/>
            <path fill="#84DCC6" d="M143.51 167.846c-2.075-2.386-3.562-5.257-4.083-8.376-.34-2.034-.284-4.21 1.046-5.395 2.67-2.378 23.087 12.877 27.204 16.292a1.657 1.657 0 0 0 1.766.221l17.816-8.393c1.408.926 2.38 2.1 2.735 3.621l-17.266 14.725a5.424 5.424 0 0 1-5.047 1.134c-5.384-1.515-16.99-5.565-24.171-13.829"/>
            <path fill="#84DCC6" d="M143.51 167.846c-2.075-2.386-3.562-5.257-4.083-8.376-.34-2.034-.284-4.21 1.046-5.395 2.67-2.378 23.087 12.877 27.204 16.292a1.657 1.657 0 0 0 1.766.221l17.816-8.393c1.408.926 2.38 2.1 2.735 3.621l-17.266 14.725a5.424 5.424 0 0 1-5.047 1.134c-5.384-1.515-16.99-5.565-24.171-13.829" opacity=".4" style="mix-blend-mode:multiply"/>
            <path fill="#995B28" d="M80.475 277.012a2.318 2.318 0 0 0-2.407-.52c-2.228.807-6.83 2.232-10.576 1.808-5.147-.584-5.948.645-7.656 5.051-1.709 4.407-4.99 6.12-7.512 7.638-2.52 1.517-2.665 4.106 1.595 2.351 3.745-1.542 15.655-9.305 25.64-12.434 1.686-.529 2.184-2.665.916-3.893z"/>
            <path fill="#002A37" d="M149.76 132.97c1.586 10.413-6.748 14.072-12.573 14.96-5.823.888-6.715-7.789-7.397-12.263-.681-4.475 3.244-8.839 9.068-9.726 5.825-.887 10.22 2.554 10.902 7.028"/>
            <path fill="#A4C2D1" d="M77.071 282.185c-1.531-1.47-2.242-3.213-1.634-5.39 0 0 34.955-14.272 40.304-18.358 5.348-4.087 11.862-50.04 11.862-50.04l24.913 4.096s-8.562 48.552-23.879 58.351c-15.316 9.799-51.566 11.34-51.566 11.34"/>
            <path fill="#A4C2D1" d="M127.602 208.397s-1.5 10.586-3.652 22.05c.222.805 5.238 19.547 3.776 28.848-2.154 13.697-10.251 16.524-10.251 16.524 4.323-1.429 8.198-3.079 11.162-4.975 15.317-9.8 23.88-58.351 23.88-58.351l-24.915-4.096z" opacity=".4" style="mix-blend-mode:multiply"/>
            <path fill="#A4C2D1" d="M157.921 194.133l-24.147-.91s-10.648 5.866-8.724 26.67c1.925 20.804 6.523 34.745 5.675 44.565-.849 9.82-2.546 60.245-2.546 60.245 1.907 1.44 3.955 1.778 6.122 1.204 0 0 8.049-37.061 12.458-47.58 6.434-15.347 6.798-52.717 6.798-52.717s5.826-20.777 4.364-31.477"/>
            <path fill="#84DCC6" d="M139.28 153.848l-.26.157c-5.654 3.423-9.068 9.788-8.278 16.35.045.376.101.752.17 1.126l1.856 10.126c.304 1.654.19 3.363-.385 4.943a11.486 11.486 0 0 0-.682 3.533l-.005.112c-.16 3.619-10.023 14.207-10.023 14.207s-4.91 7.816 8.526 10.583c13.438 2.767 24.702-.658 27.954-5.92 1.797-2.904-2.393-21.377 2.266-28.041 1.983-2.837 5.436-8.2.954-13.172l-13.938-13.853c-1.765-1.163-6.546-1.52-8.155-.15"/>
            <path fill="#995B28" d="M140.232 128.58c-5.488.747-7.005 4.931-6.127 12.173.329 2.711 1.91 5.228 3.124 6.806.9 1.173 1.304 2.652 1.08 4.114l-.65 4.243c-.306 3.895 1.774 5.726 4.529 6.119 1.365.193 2.9-.31 3.945-1.207 1.245-1.067 1.1-2.979.628-4.548l-.469-1.121c-.632-1.51.046-3.322 1.584-3.884 1.195-.436 2.478-.38 3.303-1.13.805-.731 2.067-7.596.122-14.38-2.009-7.013-5.582-7.93-11.069-7.184"/>
            <path fill="#995B28" d="M150.36 143.84a1.27 1.27 0 1 1-2.471.554l-.46-5.376a.755.755 0 0 1 .692-.819.609.609 0 0 1 .633.43l1.607 5.21z" opacity=".4" style="mix-blend-mode:multiply"/>
            <path fill="#002A37" d="M151.71 124.383c-1.298-.127-2.472.2-3.417.821-2.325 1.533-4.836 2.761-7.589 3.181l-.373.057a12.615 12.615 0 0 0-7.782 4.383 3.88 3.88 0 0 0 .748 5.664l3.39 2.38a.65.65 0 0 0 1.018-.63l-.261-1.705a1.746 1.746 0 0 1 1.211-1.933l.826-.255c.953-.295 1.793-.843 2.552-1.491 1.043-.893 2.348-1.448 3.734-1.476 1.266-.025 2.191.36 2.916.752a5.13 5.13 0 0 0 3.23.565 5.207 5.207 0 0 0 4.022-7.145 5.143 5.143 0 0 0-4.225-3.168"/>
            <path fill="#995B28" d="M136.86 141.563c.227 1.676.477 3.786-.995 3.986-1.47.2-3.363-2.65-3.591-4.327-.227-1.675.661-2.215 2.133-2.415 1.47-.2 2.225 1.081 2.453 2.756M167.847 243.951c-1.085-1.151-2.046-2.426-2.524-2.837-.198-.172-.87-.47-1.057-.57-.554-.293-1.457-.659-1.773-1.201l-1.36-2.256c-.64-1.101-1.656-1.627-2.758-.988-1.192.692-1.143 2.024-.317 3.129l.925 1.595c.661.884.86 1.981 1.11 3.056.507 2.187 2.254 4.106 3.8 5.515.97.884 2.733.746 5.068.433 1.148-.153 2.881-.734 1.641-1.5-1.039-.645-4.604-.404-5.48-3.822-.043-.168-.122-.607.058-.719.54-.334 1.346.824 1.954 1.265.852.619 1.632.618 1.938.321.322-.312-.45-.6-1.225-1.421"/>
            <path fill="#995B28" d="M167.847 243.951c-1.085-1.151-2.046-2.426-2.524-2.837-.198-.172-.87-.47-1.057-.57-.554-.293-1.457-.659-1.773-1.201l-1.36-2.256c-.64-1.101-1.656-1.627-2.758-.988-1.192.692-1.143 2.024-.317 3.129l.925 1.595c.661.884.86 1.981 1.11 3.056.507 2.187 4.907.019 5.087-.093.54-.334 1.346.824 1.954 1.265.852.619 1.632.618 1.938.321.322-.312-.45-.6-1.225-1.421"/>
            <path fill="#84DCC6" d="M149.778 204.784c.07-6.087-1.827-26.375-2.867-32.034-.769-4.18-1.877-4.98-4.032-6.767l-5.924-3.508s.996 21.976 3.426 37.362c.078.488-5.79-20.594-6.37-19.024-3.867 10.44-.165 34.79 1.15 34.934 1.914.207 3.997.31 5.178.162 7.058-.89 1.832-7.205 2.167-6.128 3.988 12.815 7.17 3.76 7.272-4.997" opacity=".4" style="mix-blend-mode:multiply"/>
            <path fill="#84DCC6" d="M133.868 166.098s-3.888 34.097 3.885 47.408c4.684 8.024 17.13 22.663 20.02 26.027.369.429.973.566 1.49.336.33-.148.705-.328 1.037-.522.336-.195.745-.496 1.115-.789.614-.484.763-1.35.357-2.018-3.003-4.934-14.759-24.45-15.723-29.159-1.108-5.404 1.14-35.533-1.33-40.459-2.473-4.924-8.656-7.115-10.85-.824"/>
        </g>
        <g>
            <path fill="#E6E6E6" d="M246.162 313.77H9.376c-3.728 0-6.76 3.088-6.76 6.88v23.87c0 3.79 3.032 6.875 6.76 6.875h236.786c3.729 0 6.762-3.086 6.762-6.875v-23.87c0-3.792-3.033-6.88-6.762-6.88" style="mix-blend-mode:multiply"/>
            <path fill="#84DCC6" d="M6.774 320.322a.337.337 0 0 0-.336.327v23.871c0 .176.154.325.336.325h238.702v-24.523H6.774z"/>
            <path fill="#84DCC6" d="M0 320.65v23.87c0 3.789 3.033 6.874 6.762 6.874h234.714a2.395 2.395 0 0 0 2.395-2.396v-1.757a2.395 2.395 0 0 0-2.395-2.396H8.834a2.403 2.403 0 0 1-2.395-2.396v-19.73a2.403 2.403 0 0 1 2.395-2.397h232.642a2.395 2.395 0 0 0 2.395-2.396v-1.76a2.397 2.397 0 0 0-2.395-2.396H6.762c-3.73 0-6.762 3.088-6.762 6.88"/>
            <path fill="#84DCC6" d="M250.31 320.65v23.87c0 3.789-3.033 6.874-6.763 6.874H8.834a2.396 2.396 0 0 1-2.396-2.396v-1.757a2.396 2.396 0 0 1 2.396-2.396h232.64a2.403 2.403 0 0 0 2.396-2.396v-19.73a2.402 2.402 0 0 0-2.395-2.397H8.834a2.396 2.396 0 0 1-2.396-2.396v-1.76a2.397 2.397 0 0 1 2.396-2.396h234.713c3.73 0 6.762 3.088 6.762 6.88"/>
            <path fill="#1B998B" d="M198.317 344.055h3.88V321.09h-3.88zM205.505 343.968h3.88v-22.964h-3.88zM42.909 344.055h3.88V321.09h-3.88zM212.693 338.916h3.88v-12.86h-3.88zM38.117 332.487a7.08 7.08 0 1 1-14.16-.002 7.08 7.08 0 0 1 14.16.002"/>
            <g>
                <path fill="#E6E6E6" d="M51.532 313.328h182.975a2.395 2.395 0 0 0 2.395-2.395v-3.594a2.396 2.396 0 0 0-2.395-2.396h-5.227a53.374 53.374 0 0 1-.985-2.764h.118c-.113-.345-.211-.705-.325-1.054h-.119a56.407 56.407 0 0 1-.734-2.64h.101c-.091-.35-.19-.7-.276-1.055h-.097a60.801 60.801 0 0 1-.549-2.639h.083c-.07-.348-.13-.701-.19-1.053h-.065a61.224 61.224 0 0 1-.386-2.64h.043c-.045-.346-.08-.704-.12-1.056h-.043c-.093-.87-.167-1.75-.227-2.637h.033c-.028-.351-.059-.698-.077-1.058h-.027a67.438 67.438 0 0 1-.073-2.636h.012c-.004-.293-.017-.582-.023-.875.025-7.867 1.427-15.175 3.812-21.389h5.34a2.396 2.396 0 0 0 2.396-2.395v-3.594a2.396 2.396 0 0 0-2.395-2.396l-185.216-.01c-4.322.144-13.243 1.252-19.987 7.508-5.519 5.122-8.32 12.406-8.32 21.648 0 30.765 30.241 31.12 30.548 31.12" style="mix-blend-mode:multiply"/>
                <path fill="#FFF" d="M48.536 261.049c-12.122 0-21.985 9.863-21.985 21.988 0 12.128 9.863 21.993 21.985 21.993h178.16c-2.497-6.348-3.96-13.887-3.96-21.993 0-8.108 1.463-15.64 3.96-21.988H48.537z"/>
                <g fill="#CFDBE5">
                    <path d="M38.465 302.179h187.334c-.113-.346-.212-.705-.325-1.054H36.642c.59.377 1.195.73 1.823 1.054M33.317 298.485h191.404c-.09-.349-.189-.7-.276-1.056H32.302a19 19 0 0 0 1.015 1.056M30.219 294.792h193.663a35.53 35.53 0 0 1-.19-1.054H29.576c.212.351.418.711.643 1.054M28.24 291.098h195.045c-.047-.346-.081-.705-.12-1.056H27.854c.123.351.243.71.384 1.056M27.082 287.405h195.845c-.028-.352-.058-.698-.076-1.058H26.883c.06.36.122.71.199 1.058M26.602 283.71h196.16c-.005-.352-.026-.702-.026-1.056H26.55c0 .357.035.704.05 1.057M26.768 279.725h196.035c.015-.35.047-.7.066-1.053H26.929c-.065.35-.113.704-.161 1.053M27.574 276.038H223.08c.033-.358.08-.706.119-1.057H27.958c-.126.35-.27.693-.384 1.057M29.131 272.342h194.436c.058-.35.102-.71.17-1.057H29.753c-.211.35-.43.695-.622 1.057M31.6 268.65h192.67c.081-.363.168-.708.252-1.06H32.562c-.328.349-.657.688-.962 1.06M35.545 264.954h189.693c.103-.353.214-.706.324-1.059H37.116c-.539.334-1.06.686-1.57 1.059"/>
                </g>
                <g transform="translate(26.147 260.95)">
                    <mask id="B" fill="#fff">
                        <use xlink:href="#A"/>
                    </mask>
                    <path fill="#E6E6E6" d="M23.193-31.799v55.396l4.387-5.703 4.389 5.825V-31.8z" mask="url(#B)" style="mix-blend-mode:multiply"/>
                </g>
                <g transform="translate(26.147 260.95)">
                    <mask id="D" fill="#fff">
                        <use xlink:href="#C"/>
                    </mask>
                    <path fill="#FE5F55" d="M20.53-31.799v55.396l4.388-5.703 4.387 5.825V-31.8z" mask="url(#D)"/>
                </g>
                <path fill="#00546E" d="M234.288 310.932a2.396 2.396 0 0 1-2.396 2.396H48.918c-.307 0-30.548-.354-30.548-31.12 0-9.242 2.801-16.526 8.32-21.649 8.573-7.951 20.667-7.586 22.356-7.497h182.846a2.396 2.396 0 0 1 2.396 2.396v3.593a2.396 2.396 0 0 1-2.396 2.396l-183.289-.011c-.083-.005-9.928-.598-16.25 5.31-3.715 3.47-5.598 8.673-5.598 15.462 0 9.36 3.585 15.99 10.655 19.705 5.618 2.953 11.463 3.03 11.521 3.03h182.961a2.396 2.396 0 0 1 2.396 2.396v3.593z"/>
            </g>
        </g>
        <g>
            <path fill="#E6E6E6" d="M76.193 194.314c.157-.227.315-.438.47-.682 0 0-6.584-15.246-14.394-17.617.655-1.22.938-2.606.665-4.116-.91-5.06-5.872-4.958-3.847-10.494 2.517-6.88-1.92-6.572-4.455-9.479-1.39-1.594-3.529-7.993-7.349-9.994-3.493-1.83-8.41-2.109-12.799.662-.01.005-.021.007-.033.012-1.202.633-2.01 1.326-2.572 2.084-.2.2-.4.396-.594.61-1.928 1.724-3.486 4.622-2.754 9.455 0 0 .198.102.57.249-.39.93-.903 1.902-1.603 2.926-2.104 3.075-1.802 6.597.849 9.372 4.549 4.765-.282 5.538 1.254 10.068.691 2.04 3.274 3.087 6.184 3.171-5.825 6.48-5.004 17.64-3.709 23.825 0 0 .684.243 1.769.363 0 0 .831 2.695 1.276 6.137l-2.924 7.559-.835-.323a.596.596 0 0 0-.768.34l-1.653 4.269-.077.063c-1.055.863-1.631 2.328-1.982 3.547-.222.764.326 1.686 1.121 2.873.39.583 1.172 1.37 1.257.49.002-.02 0-.048 0-.07l7.754 3c-5.656 2.547-10.176 5.673-13.606 9.22-.139.134-.288.262-.423.397-.34.36-.643.726-.926 1.095-5.32 6.212-7.554 13.558-6.987 21.239 1.034 13.995 5.597 30.733 5.24 35.191l.67-.113c-.355.993-.934 1.816-1.822 2.346-4.684 2.801-11.078 5.486-10.484 7.758.1.38.524.577.912.51 2.37-.41 11.56-2 16.943-2.902 2.076-.348 3.237-2.588 2.332-4.488l-1.103-2.314c-.333-.7-.616-1.421-.854-2.158.15-.057.249-.11.257-.153.778-4.145-.098-12.699-.44-20.818.191 1.24.336 2.498.402 3.777-.376-6.091-.747-12.533.075-17.01 4.496 17.961 21.482 34.808 21.482 34.808l.33-.438c.326 1.05.332 2.09-.163 3.061-.68 1.33-1.502 2.696-2.303 4.007-2.39 3.915-5.27 3.111-4.246 5.327.462.998 5.694-.162 8.9-3.151a467.265 467.265 0 0 0 6.132-5.837c1.659-1.483 1.412-4.145-.489-5.3l-2.997-1.816a4.202 4.202 0 0 1-.968-.808l-.252-.284.294-.392c-8.438-8.337-16.386-39.931 0-39.931 16.384 0 26.095 1.354 26.095-17.23 0-5.584-.32-13.036-1.45-20.903.682-.846 1.19-1.688 1.45-2.504 1.444-4.538.045-11.735-2.822-18.486" style="mix-blend-mode:multiply"/>
            <path fill="#FFBFAC" d="M31.23 204.73s2.8 9.022.876 15.167c-1.923 6.146-4.41 10.056-4.41 10.056l1.557.464s9.154-5.518 11.258-11.813c2.104-6.294 0-15.22 0-15.22l-9.28 1.345z"/>
            <path fill="#FE5F55" d="M31.837 142.606c-6.182 3.249-1.997 8.077-6.954 15.324-2.104 3.074-1.802 6.596.849 9.372 4.55 4.765-.28 5.538 1.255 10.068 1.61 4.751 13.468 4.126 15.866-1.53 2.735-6.452-3.531-37.167-11.016-33.234"/>
            <path fill="#FFBFAC" d="M22.358 288.009l1.325 7.902c.268 1.608.761 3.17 1.462 4.642l1.104 2.314c.905 1.901-.257 4.14-2.333 4.488-5.382.902-14.574 2.493-16.942 2.901-.389.068-.813-.129-.912-.51-.595-2.27 5.8-4.955 10.484-7.757 3.568-2.134 2.187-8.967 1.03-12.897-.438-1.484.605-2.99 2.146-3.124a2.456 2.456 0 0 1 2.636 2.041M43.91 286.882l6.353 7.162c.28.316.607.589.968.808l2.998 1.817a3.31 3.31 0 0 1 .489 5.299s-3 2.915-6.132 5.837c-3.205 2.99-8.44 4.148-8.901 3.151-1.023-2.216 1.856-1.413 4.246-5.327.801-1.311 1.624-2.677 2.304-4.007 1.897-3.716-3.44-8.433-6.805-10.923-1.21-.895-1.202-2.707.002-3.61l.779-.583a2.745 2.745 0 0 1 3.7.376"/>
            <path fill="#A4C2D1" d="M39.004 230.756c-19.337 6.917-27.581 19.813-26.546 33.809 1.033 13.995 5.597 30.733 5.24 35.191 0 0 6.777-1.12 6.85-1.514 1.523-8.118-3.303-33.155 1.978-38.693 5.281-5.539 28.451-22.134 49.874-23.342 0 0-15.939-13.126-37.396-5.451"/>
            <path fill="#A4C2D1" d="M24.51 281.202c-.545-8.833-1.082-18.403 2.016-21.653 5.281-5.54 28.452-22.134 49.874-23.343 0 0-15.939-13.125-37.396-5.45-7.61 2.722-13.871 6.75-18.633 11.475-9.098 9.578 3.285 22.607 4.14 38.97" opacity=".4" style="mix-blend-mode:multiply"/>
            <path fill="#A4C2D1" d="M76.4 236.207c0 18.584-9.711 17.23-26.095 17.23-16.385 0-8.437 31.594 0 39.932l-4.238 5.63s-22.427-22.235-22.568-42.855c-.142-20.618 26.806-26.612 26.806-26.612s26.096-5.37 26.096 6.675"/>
            <path fill="#1B998B" d="M39.55 176.475c-12.623 4.075-11.737 20.019-10.088 27.89 0 0 6.768 2.418 11.587-4.2 3.772-5.18 1.833-24.765-1.499-23.69"/>
            <path fill="#1B998B" d="M39.55 176.475c-12.623 4.075-11.737 20.019-10.088 27.89 0 0 6.768 2.418 11.587-4.2 3.772-5.18 1.833-24.765-1.499-23.69" opacity=".4" style="mix-blend-mode:multiply"/>
            <path fill="#1B998B" d="M39.55 176.475c-6.047 3.496-9.032 16.642-.546 32.459 6.296 11.73 0 21.822 0 21.822s15.502-5.12 37.396 5.45c0-8.483-.728-21.273-3.929-33.297-2.391-8.989-6.165-17.551-12.047-23.563-3.51-3.588-8.163-5.674-13.526-4.44l-7.348 1.569z"/>
            <path fill="#FFBFAC" d="M37.134 164.175s2.9 4.9 2.416 12.47c0 0-1.182 1.98.546 3.905.76.094 1.73-2.172 4.573-2.733 5.647-1.114.68-16.153.68-16.153l-8.215 2.511z"/>
            <path fill="#FFBFAC" d="M27.782 153.073c-.566 4.699 2.067 13.655 5.088 16.167 5.766 4.794 11.972-3.003 13.187-8.695 0 0 2.98 1.848 4.097-4.376.63-3.501-.84-4.468-2.06-4.261-.948.16-1.664 1.203-1.664 1.203s-2.155-8.285-8.926-5.864c-6.77 2.422-8.339-5.638-9.722 5.826"/>
            <path fill="#FE5F55" d="M33.879 142.882c-.337-.008-9.555 1.373-7.963 11.874 0 0 5.946 3.14 16.668 0 0 0 .319-11.678-8.705-11.874"/>
            <path fill="#FFBFAC" d="M28.288 227.013c.336-.898.771-1.763.867-2.133.04-.154.023-.599.026-.728.011-.38-.031-.97.179-1.286l.864-1.345c.427-.643.441-1.338-.202-1.765-.696-.464-1.408-.08-1.788.665l-.62.93c-.303.597-.846.999-1.365 1.423-1.054.863-1.63 2.328-1.982 3.547-.221.764.326 1.686 1.122 2.873.39.583 1.171 1.371 1.257.49.071-.737-1.015-2.613.61-4.005.08-.068.297-.23.407-.161.327.204-.087.953-.165 1.402-.108.63.101 1.054.344 1.14.257.093.206-.405.446-1.047"/>
            <path fill="#E6E6E6" d="M48.164 236.21a.8.8 0 0 1-1.037.458l-18.695-7.234a.803.803 0 0 1-.457-1.037l9.886-25.546a.803.803 0 0 1 1.037-.46l18.693 7.235c.414.16.619.625.46 1.037l-9.887 25.546z" style="mix-blend-mode:multiply"/>
            <path fill="#F1EDF0" d="M45.912 236.21a.801.801 0 0 1-1.037.458l-18.695-7.234a.802.802 0 0 1-.457-1.037l9.886-25.546a.803.803 0 0 1 1.037-.46l18.693 7.235c.413.16.619.625.46 1.037l-9.887 25.546z"/>
            <path fill="#A4C2D1" d="M45.39 233.238l-17.28-6.687 8.591-22.203 17.28 6.687z"/>
            <path fill="#FE5F55" d="M36.882 231.786a.806.806 0 1 1-1.505-.583.807.807 0 1 1 1.505.583"/>
            <path fill="#84DCC6" d="M41.5 223.039l-12.752-4.937a.597.597 0 0 0-.77.34l-1.716 4.435a.596.596 0 0 0 .34.77l9.613 3.72.145.938.739-.596 2.256.874a.596.596 0 0 0 .769-.34l1.718-4.436a.596.596 0 0 0-.341-.768"/>
            <g fill="#FFF" opacity=".6">
                <path d="M32.795 220.636l-.103.267 7.757 3.015.104-.267zM32.474 221.467l-.105.268 7.758 3.015.104-.267zM32.151 222.299l-.104.268 7.758 3.014.104-.266zM31.83 223.131l-.104.267 7.757 3.015.104-.267zM31.507 223.963l-.103.267 2.17.851.102-.267z"/>
            </g>
            <path fill="#1B998B" d="M31.165 221.55a1.453 1.453 0 1 1-2.71-1.05 1.453 1.453 0 0 1 2.71 1.05" opacity=".4" style="mix-blend-mode:multiply"/>
            <g fill="#FFF" opacity=".6">
                <path d="M30.223 222.022l.066-.174a.371.371 0 0 0-.211-.481l-.694-.268a.372.372 0 0 0-.48.213l-.067.173M30.133 220.193a.372.372 0 1 1-.268.694.372.372 0 0 1 .268-.694"/>
            </g>
            <g>
                <path fill="#00546E" d="M40.166 213.623l12.754 4.936a.597.597 0 0 1 .339.77l-1.716 4.435a.597.597 0 0 1-.77.34l-9.612-3.72-.74.594-.145-.937-2.256-.874a.597.597 0 0 1-.34-.77l1.717-4.434a.596.596 0 0 1 .77-.34"/>
                <g fill="#FFF" opacity=".6">
                    <path d="M44.213 216.157l-.103.267 7.757 3.015.104-.267zM43.892 216.989l-.104.267 7.758 3.014.103-.266zM43.57 217.82l-.105.267 7.758 3.016.105-.268zM43.247 218.652l-.103.267 7.757 3.015.104-.267zM42.926 219.483l-.104.268 2.17.85.102-.265z"/>
                </g>
                <path fill="#00546E" d="M42.583 217.072a1.452 1.452 0 1 1-2.708-1.048 1.452 1.452 0 0 1 2.708 1.048" opacity=".4" style="mix-blend-mode:multiply"/>
                <g fill="#FFF" opacity=".6">
                    <path d="M41.641 217.542l.067-.173a.372.372 0 0 0-.212-.48l-.693-.27a.372.372 0 0 0-.481.214l-.067.173M41.552 215.715a.37.37 0 1 1-.268.691.37.37 0 0 1 .268-.691"/>
                </g>
            </g>
            <g>
                <path fill="#84DCC6" d="M47.46 207.643l-12.753-4.936a.596.596 0 0 0-.769.34l-1.717 4.435a.597.597 0 0 0 .34.77l9.613 3.721.146.937.738-.595 2.256.873a.597.597 0 0 0 .77-.339l1.716-4.436a.597.597 0 0 0-.34-.77"/>
                <g fill="#FFF" opacity=".6">
                    <path d="M38.754 205.241l-.104.267 7.758 3.015.104-.267zM38.432 206.073l-.103.267 7.757 3.014.104-.266zM38.11 206.905l-.103.266 7.758 3.016.103-.268zM37.788 207.736l-.104.268 7.758 3.014.104-.266zM37.466 208.568l-.103.267 2.169.85.103-.265z"/>
                </g>
                <path fill="#1B998B" d="M37.124 206.156a1.452 1.452 0 1 1-2.708-1.048 1.452 1.452 0 0 1 2.708 1.048" opacity=".4" style="mix-blend-mode:multiply"/>
                <g fill="#FFF" opacity=".6">
                    <path d="M36.182 206.626l.067-.172a.372.372 0 0 0-.213-.481l-.692-.269a.372.372 0 0 0-.482.213l-.067.173M36.093 204.799a.371.371 0 1 1-.269.692.371.371 0 0 1 .269-.692"/>
                </g>
            </g>
            <path fill="#FFBFAC" d="M24.267 226.32c-.221.765.326 1.687 1.122 2.874.39.583 1.171 1.371 1.256.49.058-.59-.357-1.82-.068-3.127.075-.344.185-.99.068-1.008-.799-.117-2.14-.058-2.378.772M56.225 177.2c-5.683 1.206-4.458 9.795 4.168 17.691 8.627 7.895 11.038 14.768 4.312 22.371-3.526 3.986-19.833 10.145-20.444 14.21 0 0-.879 3.1 5.688 0 6.568-3.098 4.605-5.33 7.104-5.655 4.29-.557 17.562-7.402 19.347-13.016 3.512-11.038-9.77-37.81-20.175-35.602"/>
            <path fill="#1B998B" d="M55.59 176.051c-8.6 3.014-1.74 15.788 7.749 24.04 0 0 5.838 1.243 10.71-6.459 0 0-9.013-20.891-18.459-17.58"/>
            <path fill="#FE5F55" d="M41.564 150.63c2.093 1.37 1.772 3.625 1.772 7.491 0 3.866 1.691 3.866 2.416 7.732.725 3.865-6.604 8.295-1.691 13.289 4.913 4.993 17.638.419 16.26-7.243-.912-5.06-5.874-4.958-3.85-10.495 2.518-6.88-1.918-6.571-4.454-9.478-1.39-1.594-3.529-7.993-7.348-9.993-4.39-2.3-11.033-2.168-16.044 3.414l12.939 5.283z"/>
            <path fill="#FFBFAC" d="M33.418 165.332a1.278 1.278 0 1 0 2.549-.067l-.873-5.36a.76.76 0 0 0-.876-.629.613.613 0 0 0-.515.574l-.285 5.482z" opacity=".4" style="mix-blend-mode:multiply"/>
        </g>
        <g>
            <path fill="#E6E6E6" d="M94.144 364.8c3.031 15.242 2.286 21.767 2.286 21.767-1.556 2.194-9.566-3.395-18.602-8.031 2.494-1.161 15.086-7.317 16.316-13.735zm50.376 13.581l.01-.001c-9.161 4.666-17.335 10.406-18.91 8.187 0 0-.703-6.189 2.056-20.578 2.728 6.64 16.844 12.392 16.844 12.392zm19.497-4.98s-.365-.135-1.119-.192c-3.71-.48-8.045.64-12.428 2.424a10.594 10.594 0 0 0-.557-.258c-.79-.338-1.202-.095-1.947-.523-.817-.471-2.16-1.018-3.452-1.758-.48-.32-.755-.533-.755-.533s-5.638-4.044-6.32-6.944c-.682-2.9 2.443-17.157 2.443-17.157 3.222-15.97-9.706-26.88-23.282-29.588a20.097 20.097 0 0 0-1.888-.429c.009-1.4.132-3.082.495-4.88a9.64 9.64 0 0 0 1.31-.888c.222-.012.449.006.686.068 1.696.45 3.323.729 5.088-.733 3.795-3.146-.465-6.277 1.964-8.9 1.567-.244 3.568-1.033 3.726-3.484.263-4.066-5.696-1.289-2.489-7.704 1.734-3.47-1.412-7.615-4.536-7.056-5.278.946-5.06-3.664-9.93-3.664-4.872 0-4.955 6.45-9.93 4.45-5.026-2.02-6.844 2.922-5.07 5.742 3.82 6.072-2.22 4.166-1.956 8.232.17 2.646 2.487 3.356 4.087 3.532 1.898 2.214-2.102 5.781 1.603 8.852 1.765 1.462 3.3.73 5.089.73.416 0 .788.115 1.162.29.263.187.533.36.81.518.26 1.814.275 3.537.195 4.956-14.323 1.926-28.836 13.138-25.444 29.956 0 0 3.125 14.257 2.443 17.157-.683 2.9-6.88 6.101-6.88 6.101s-3.516.026-5.477 1.992c-.612.613-.793 1.172-.683 1.677-4.176-1.64-8.284-2.636-11.821-2.178-.755.057-1.12.192-1.12.192-8.84 2.022-8.971 18.266 15.765 28.008 2.76 1.726 5.998 3.288 9.8 4.59-.26.303-.532.643-.83 1.024-2.214 2.828-5.88 3.479-8.048 4.027-2.167.548-2.844 2.399.642 2.062 3.158-.306 13.881-3.385 21.637-3.212.073.001.141-.014.213-.02l.02.092c2.372-.046 4.665-.133 6.9-.254 2.195.13 4.485.2 6.892.2 6.643 0 12.445-.515 17.53-1.417 6.524.408 13.332 1.819 15.73 1.907 3.5.129 2.715-1.679.518-2.096-1.762-.336-4.487-.681-6.724-2.192 6.919-2.314 12.001-5.488 15.732-8.954 16.461-9.858 17.645-22.063 10.206-23.765z" style="mix-blend-mode:multiply"/>
            <path fill="#D07E4D" d="M78.96 348.46s3.124 14.257 2.442 17.157c-.682 2.9-6.88 6.101-6.88 6.101s-3.516.026-5.477 1.992c-3.266 3.274 5.737 5.023 5.737 5.023s15.388-6.807 16.75-13.935c1.36-7.128-2.897-17.532-2.897-17.532l-9.676 1.194z"/>
            <path fill="#A4C2D1" d="M104.403 318.504c-14.323 1.926-28.837 13.138-25.444 29.956h11.554l13.89-29.956z"/>
            <path fill="#A4C2D1" d="M104.403 318.504c-11.974 7.195-21.493 13.138-18.1 29.956h4.21l13.89-29.956z" opacity=".4" style="mix-blend-mode:multiply"/>
            <path fill="#D07E4D" d="M117.842 406.389c.1-.96.897-1.688 1.861-1.714 1.929-.051 5.121-.327 7.424-1.487 3.516-1.772 4.41-1.106 6.789 1.585 2.379 2.69 6.076 3.12 8.273 3.538 2.197.419 2.983 2.226-.517 2.097-3.17-.116-14.059-2.549-21.79-1.914-1.19.098-2.165-.92-2.04-2.105"/>
            <path fill="#00546E" d="M123.008 386.567c2.724 3.84 25.224-16.178 38.396-13.165 0 0 3.14 36.516-52.991 36.516S55.42 373.402 55.42 373.402c13.17-3.013 35.671 17.006 38.396 13.165h29.19z"/>
            <path fill="#00546E" d="M105.787 399.748c-2.85-.826-6.11-2.196-9.539-4.47-6.002-3.98-15.773-12.983-25.531-17.286l34.106 27.963c1.631-.427 12.263-.374 17.07-1.771 12.554-3.649 29.01-28.694 29.01-28.694-9.372 3.254-30.403 21.025-45.116 24.258" opacity=".4" style="mix-blend-mode:multiply"/>
            <path fill="#00546E" d="M121.071 408.72c-72.99.423-78.463-32.388-65.65-35.318 0 0 9.33-3.562 32.927 18.15 3.054 2.81 22.189 13.696 33.648 14.27l-.925 2.899z"/>
            <path fill="#00546E" d="M103.962 402.466c-5.714 2.061-12.869 3.117-17.66 2.348 0 0 2.65 3.877 16.384 3.877 2.459 0 5.585-1.076 9.05-2.82-2.695-.952-5.12-2.12-7.774-3.405" opacity=".4" style="mix-blend-mode:multiply"/>
            <path fill="#D07E4D" d="M96.297 407.676a1.918 1.918 0 0 0-1.96-1.6c-1.928.064-5.131-.02-7.5-1.04-3.615-1.56-4.468-.841-6.682 1.987-2.213 2.828-5.88 3.478-8.047 4.027-2.167.549-2.845 2.399.642 2.062 3.157-.306 13.881-3.385 21.638-3.212 1.192.026 2.106-1.048 1.91-2.224"/>
            <path fill="#00546E" d="M128.476 391.552c-2.546 2.343-24.204 11.193-34.403 14.404 0 1.67.363 3.232.548 4.016 67.488-1.3 79.262-33.717 66.783-36.57 0 0-9.33-3.563-32.928 18.15"/>
            <path fill="#D07E4D" d="M154.133 382.7c-.083-.313-2.66-3.55-3.66-4.801-.437-.692-.901-1.22-1.518-1.597-.617-.376-4.426-1.356-7.054-3.208-.479-.32-6.393-4.577-7.075-7.477-.682-2.9 2.442-17.157 2.442-17.157l-9.675-1.194s-4.259 10.405-2.896 17.532c1.361 7.128 17.407 13.55 17.73 13.492.604.21 1.118.392 1.51.532.555.2.938.701.99 1.29 0 0-.923 2.944-1.053 3.658-.22 1.201-.91 4.68.317 5.162.516.203 1.04-1.028 2.138-1.214.724-.122 2.153-.487 2.746-1.455.83-1.354 1.583-1.38 1.967-2.92.114-.457.182-.88.23-1.288.698.374 1.335.942 1.64 1.414.485.751 1.441.056 1.22-.77"/>
            <path fill="#A4C2D1" d="M111.825 318.504c14.323 1.926 28.837 13.138 25.443 29.956h-11.553l-13.89-29.956z"/>
            <path fill="#A4C2D1" d="M111.825 318.504c9.25 7.673 22.252 13.138 18.859 29.956h-4.97l-13.89-29.956z" opacity=".4" style="mix-blend-mode:multiply"/>
            <path fill="#A4C2D1" d="M108.413 390.587c12.04 0 14.595-4.02 14.595-4.02s-1.117-9.747 4.92-33.263c6.036-23.517-6.586-35.183-19.515-35.183-12.93 0-25.553 11.666-19.516 35.183 6.037 23.516 4.92 33.263 4.92 33.263s2.556 4.02 14.596 4.02"/>
            <path fill="#002A37" d="M123.31 301.926l-14.898-8.688-14.596 8.85c5.357 1.958-1.054 6.287 3.33 9.922 1.765 1.462 3.302.73 5.09.73 1.722 0 2.683 1.96 6.176 1.96 2.849 0 4.174-2.488 6.177-1.956 1.697.45 3.324.728 5.09-.734 4.384-3.635-1.992-7.252 3.63-10.084"/>
            <path fill="#D07E4D" d="M112.867 312.36c-1.365 5.277-.5 9.917-.5 9.917s-.463 2.008-4.253 1.816c-3.796 0-4.157-2.028-4.157-2.028s1.106-4.852 0-9.93l8.91.224zM101.946 305.006c.63 2.075.052 4.035-1.293 4.378-1.345.344-2.947-1.059-3.579-3.134-.63-2.075-.05-4.036 1.294-4.38 1.344-.342 2.946 1.06 3.578 3.136M114.88 305.006c-.632 2.075-.053 4.035 1.292 4.378 1.345.344 2.947-1.059 3.578-3.134.63-2.075.052-4.036-1.293-4.38-1.345-.342-2.947 1.06-3.578 3.136"/>
            <path fill="#D07E4D" d="M118.343 302.581c0 6.694-4.446 12.12-9.93 12.12-5.486 0-9.93-5.426-9.93-12.12 0-6.693 4.444-12.119 9.93-12.119 5.484 0 9.93 5.426 9.93 12.12"/>
            <path fill="#002A37" d="M108.413 281.202c4.87 0 4.652 4.61 9.93 3.664 3.125-.559 6.27 3.586 4.537 7.056-3.208 6.415 2.751 3.638 2.488 7.704-.263 4.066-5.603 3.57-5.603 3.57-.211-.882-1.308-1.325-1.308-1.325l-.71 4.846s-1.57-.32-1.802-1.54c-.231-1.22.693-3.634.868-4.629.281-1.59-1.608-.736-3.135-.954-2.606-.371-4.46-2.653-7.181-1.645-5.645 2.09-6.263.802-6.485 2.6-.124 1 1.1 3.407.868 4.628-.231 1.22-1.803 1.54-1.803 1.54l-.71-4.846s-1.097.443-1.307 1.325c0 0-5.34.496-5.604-3.57-.262-4.066 5.777-2.16 1.957-8.232-1.774-2.82.044-7.763 5.069-5.742 4.975 2 5.059-4.45 9.93-4.45"/>
            <path fill="#D07E4D" d="M109.833 309.062a1.426 1.426 0 1 1-2.843.015l.788-6.004a.848.848 0 0 1 .953-.732c.32.043.566.302.592.622l.51 6.099z" opacity=".4" style="mix-blend-mode:multiply"/>
            <path fill="#E6E6E6" d="M92.27 377.95L80 366.142c-.273-.262-.794-.319-1.169-.13l-23.12 11.703c-.374.189-.457.554-.185.814l12.27 11.808c.272.262.795.32 1.168.13l23.12-11.702c.374-.19.457-.555.186-.815" style="mix-blend-mode:multiply"/>
            <path fill="#F1EDF0" d="M76.217 366.012c.375-.19.896-.13 1.168.13l12.27 11.808c.27.26.189.625-.186.814l-23.12 11.704c-.373.188-.896.13-1.168-.13l-12.27-11.809c-.272-.26-.189-.625.186-.814l23.12-11.703z"/>
            <path fill="#A4C2D1" d="M74.959 368.003l11.344 10.915-20.096 10.171-11.343-10.914z"/>
            <path fill="#FE5F55" d="M81.617 372.283c.376-.19.902-.13 1.176.13.272.263.188.63-.188.822-.376.19-.902.131-1.175-.132-.273-.261-.19-.63.187-.82"/>
            <g fill="#FFF" opacity=".6">
                <path d="M67.526 386.459l.242-.122-8.723-8.41-.243.121zM68.28 386.077l.24-.122-8.723-8.41-.242.123zM69.031 385.697l.243-.122-8.724-8.41-.243.121zM69.785 385.316l.241-.122-8.723-8.411-.243.122zM70.538 384.935l.241-.123-8.724-8.41-.242.123zM75.295 382.527l.242-.123-8.724-8.41-.242.123zM76.048 382.146l.242-.122-8.724-8.41-.242.121zM76.8 381.765l.243-.122-8.724-8.41-.243.122zM77.554 381.384l.241-.122-8.723-8.41-.242.122zM78.307 381.004l.242-.123-5.056-4.88-.243.122zM80.063 380.114l.241-.122-8.723-8.41-.242.122zM80.816 379.733l.242-.122-8.724-8.41-.243.121zM81.569 379.353l.241-.123-8.723-8.41-.243.122zM82.322 378.971l.241-.122-8.723-8.41-.243.122zM83.074 378.59l.242-.122-5.055-4.88-.243.122zM71.29 384.554l.242-.122-8.724-8.41-.242.121zM72.043 384.172l.242-.122-8.724-8.41-.243.123zM72.796 383.792l.241-.122-8.723-8.41-.242.121zM73.55 383.41l.24-.121-6.875-6.632-.242.123z"/>
            </g>
            <path fill="#00546E" d="M75.17 382.59l.484-.244-8.715-8.416-.484.245zM75.923 382.21l.484-.244-4.827-4.674-.484.245z" opacity=".8"/>
            <path fill="#E6E6E6" d="M70.101 382.844l-4.75-4.572c-.106-.102-.073-.245.073-.32l2.117-1.07c.144-.075.35-.051.456.05l3.664 3.528.519-.038-.213.333.78.75c.106.102.074.245-.072.318l-2.117 1.072c-.145.074-.351.05-.457-.051" style="mix-blend-mode:multiply"/>
            <path fill="#84DCC6" d="M69.794 382.211l-4.75-4.573c-.106-.1-.074-.244.072-.318l2.117-1.07c.145-.075.35-.051.455.05l3.665 3.527.519-.038-.213.332.78.752c.106.1.073.245-.072.318l-2.117 1.072c-.146.073-.35.05-.456-.052"/>
            <path fill="#1B998B" d="M69.68 380.177c.507-.255 1.214-.177 1.58.176.367.353.255.847-.25 1.103-.507.256-1.214.177-1.58-.175-.367-.354-.255-.847.25-1.104" opacity=".4" style="mix-blend-mode:multiply"/>
            <g fill="#FFF" opacity=".6">
                <path d="M70.562 380.708c.122.116.083.28-.085.366l-.306.155c-.023.011-.055.008-.07-.008-.017-.016-.012-.038.01-.05l.308-.155c.123-.062.15-.181.06-.267-.088-.086-.26-.105-.383-.043l-.307.156c-.023.01-.054.008-.07-.008-.017-.017-.011-.038.01-.05l.307-.155c.168-.085.404-.06.526.059M70.526 380.35l.51.49c.017.017.011.038-.012.05-.022.012-.053.008-.07-.007l-.51-.49c-.016-.017-.01-.038.012-.05.022-.01.054-.008.07.008"/>
            </g>
            <path fill="#1B998B" d="M68.066 378.622c.506-.256 1.213-.177 1.58.175.366.353.254.848-.252 1.104-.506.255-1.213.177-1.58-.176s-.253-.847.252-1.103" opacity=".4" style="mix-blend-mode:multiply"/>
            <path fill="#FFF" d="M69.224 379.242l.117.13-.162.094-.914-.118.045-.222.914.116zm-1.005-.169l-.061.303c-.004.022.015.043.042.046l.984.126a.062.062 0 0 0 .038-.007l.219-.128c.022-.013.028-.038.011-.057l-.158-.175a.063.063 0 0 0-.034-.016l-.984-.126c-.027-.003-.053.012-.057.034z" opacity=".6"/>
            <path fill="#1B998B" d="M66.45 377.067c.505-.255 1.213-.177 1.58.176.366.352.254.847-.253 1.103-.505.256-1.212.177-1.579-.175-.367-.354-.254-.848.252-1.104" opacity=".4" style="mix-blend-mode:multiply"/>
            <path fill="#FFF" d="M67.355 378.065c-.18.099-.433.068-.565-.066-.13-.136-.09-.325.091-.423a.499.499 0 0 1 .3-.053h.002a.436.436 0 0 1 .263.12c.131.135.09.325-.09.422m-.16-.84l-.047.222a.62.62 0 0 0-.325.072c-.223.12-.273.354-.11.522.16.166.474.204.697.083.225-.122.273-.356.113-.522a.53.53 0 0 0-.28-.143l.047-.223c.002-.01 0-.02-.009-.027a.051.051 0 0 0-.03-.014c-.027-.003-.05.01-.055.03" opacity=".6"/>
        </g>
        <g>
            <path fill="#E6E6E6" d="M352.475 294.48c-.769-9.407-2.263-23.437-3.998-33.829 1.357 2.39 2.345 4.289 2.717 5.395 1.25 3.722 1.363 18.357 1.28 28.433zm6.74 108.378a4.054 4.054 0 0 1-.517-1.095l-1.264-4.194a516.885 516.885 0 0 0-5.527-22.19c-3.737-13.676-8.471-29.762-7.122-38.149 1.42-8.834 2.959-19.314 3.88-28.605 2.472-1.512 4.196-3.16 4.33-4.125.006-.05.01-.13.015-.197.076.06.157.114.244.162l-.027 1.55c0 .698-.664 1.556-1.034 2.147-.126.203-.605.864-.701 1.14-.23.664-.443 2.427-.843 4.143-.286 1.225-.87 1.933-.385 2.053.46.114 1.212-.32 1.686-1.393.338-.763.468-2.33 1.173-2.31.238.007.406.475.46.66 1.066 3.78-2.501 5.542-3.142 6.743-.765 1.432 1.23 1.022 2.42.529 2.424-1.006 4.197-1.859 4.637-3.251.701-2.221 1.311-5.046.577-7.436-.36-1.175-.782-2.341-.641-3.563v-1.125a1.42 1.42 0 0 0 .444-.793c.902-4.854 4.702-25.91 4.728-36.253.042-17.163-22.764-47.822-22.764-47.822-1.804-1.548-3.515-2.024-4.997-1.76l-.001-.001v.002a4.56 4.56 0 0 0-.594.15l-7.246.995a9.368 9.368 0 0 0-.136-.781l-1.283-4.343c-.03-.104-.05-.21-.075-.314 2.074.072 4.355-.35 5.52-1.04 2.256-1.334 1.26-4.249 2.065-6.212.805-1.964 4.26-4.652 1.882-7.538-1.416-1.72-1.81-3.809-1.9-5.222.01-.582.015-1.12.017-1.6v-.01-.465c0-5.575-5.488-6.454-12.474-6.454-2.874 0-5.663 1.17-7.982 2.865a6.627 6.627 0 0 1-2.6-.24l-3.352-1.02c-1.657-.456-3.255.966-3.255 2.9 0 .312.016.62.046.923.244 2.519 1.718 4.5 3.732 5.642-.014.362-.02.716-.028 1.047-.11 4.058 1.004 7.083 2.797 9.326.909 4.64 2.088 7.598 5.55 8.355 1.687.37 2.653 2.167 2.207 3.836l-.33 1.237c-.024.142-.038.288-.055.433l-7.815 1.072-.545.074c-.675-.94-1.955-.48-4.468 2.096 0 0-15.432 30.459-13.969 46.444.57 6.233 1.62 16.498 2.624 24.18-.26 1.392-.414 2.519-.414 3.253 0 .791.515 1.898 1.349 3.1.209 1.211.408 2.19.59 2.841.109.388.386.684.735.844l.202 1.164c.325 1.103.122 2.245-.022 3.385-.296 2.32.716 4.827 1.716 6.762.444.857 1.464 1.358 2.864 1.77.706 8.316 1.982 18.295 4.198 29.846C307.833 364.953 315 399.208 315 399.208c.203.09.407.168.611.241-.022 3.388-.706 6.948-3.303 7.953-4.882 1.89-11.363 3.393-11.169 5.636.032.377.403.632.78.631 2.306-.004 11.253-.018 16.488.001 2.02.007 3.48-1.922 2.932-3.866l-.667-2.367a16.763 16.763 0 0 1-.632-4.625l.011-3.013c.123-.026.247-.047.37-.077 0 0 .545-15.11.877-31.382.125-6.076.214-12.31.335-17.984l.019-.89.016-.722.02-.832.015-.648.027-.996.01-.455.042-1.44.006-.204.024-.772a55.995 55.995 0 0 0 4.398 9.79 14136.511 14136.511 0 0 0 26.428 46.062c.043.001.085-.003.128-.002 1.003 2.915 1.344 5.946-.627 7.494-1.128.884-2.392 1.742-3.619 2.561-3.657 2.446-5.84.587-5.84 2.93 0 1.053 5.023 2.15 9.018.837a438.963 438.963 0 0 0 7.688-2.613 3.176 3.176 0 0 0 1.708-4.811l-1.879-2.787z" style="mix-blend-mode:multiply"/>
            <path fill="#FAB9AF" d="M297.215 289.46l9.706-68.192 26.182-3.595 13.618 71.295z"/>
            <path fill="#D07E4D" d="M317.453 395.126l-.028 7.686a16.8 16.8 0 0 0 .631 4.625l.669 2.367c.548 1.944-.913 3.873-2.932 3.866-5.236-.018-14.184-.005-16.49-.001-.377 0-.747-.255-.78-.63-.193-2.244 6.288-3.747 11.17-5.637 3.719-1.44 3.521-8.123 3.063-12.026-.174-1.475 1.056-2.73 2.536-2.607a2.356 2.356 0 0 1 2.161 2.357M353.434 392.97l2.649 8.793c.116.389.292.757.518 1.094l1.878 2.788a3.176 3.176 0 0 1-1.708 4.81s-3.785 1.333-7.687 2.615c-3.995 1.312-9.02.216-9.02-.839 0-2.342 2.184-.483 5.841-2.93 1.227-.818 2.492-1.676 3.62-2.561 3.147-2.471.4-8.727-1.529-12.251-.693-1.266.044-2.84 1.456-3.14l.912-.195a2.632 2.632 0 0 1 3.07 1.816"/>
            <path fill="#002A37" d="M326.382 290.12l-29.013-2.435s-2.922 21.117 4.41 59.342c3.44 17.926 10.605 52.18 10.605 52.18 1.778.779 3.583.973 5.422.515 0 0 .545-15.11.878-31.382.319-15.606.405-32.281 1.399-37.737 2.031-11.146 6.3-40.483 6.3-40.483"/>
            <path fill="#002A37" d="M311.45 333.448c-7.253-27.976 2.244-42.135 2.244-42.135l12.689-1.193s-4.27 29.337-6.3 40.483c-.62 3.399-.886 11.15-1.076 20.284-.115 5.53-5.226-8.448-7.558-17.44" opacity=".6" style="mix-blend-mode:multiply"/>
            <path fill="#002A37" d="M320.393 290.487c-2.996 16.076-9.687 40.116 3.203 62.699a13798.395 13798.395 0 0 0 26.427 46.063c1.744.07 3.326-.562 4.797-1.678 0 0-2.26-10.238-5.528-22.193-3.737-13.675-8.471-29.76-7.122-38.149 2.528-15.718 5.431-36.652 4.551-46.82-.88-10.165-24.752-8.374-26.328.078"/>
            <path fill="#FFF" d="M296.213 287.724l10.707-66.457 26.183-3.594 14.072 70.174a2.413 2.413 0 0 1-1.912 2.85c-4.874.924-16.633 2.854-29.792 2.853-9.824 0-15.344-1.91-17.856-3.12a2.545 2.545 0 0 1-1.402-2.706"/>
            <path fill="#1B998B" d="M324.924 221.812c0 4.788.87 9.53 2.504 14.029 3.2 8.802 7.999 25.448 5.147 40.112-4.107 21.117-9.385 29.653-2.542 34.574 6.844 4.923 19.968-3.29 20.347-6.027.38-2.738-2.554-36.365-5.878-50.933-3.324-14.569-12.635-35.513-12.635-35.513l-3.944.422a3.355 3.355 0 0 0-3 3.336"/>
            <path fill="#E6E6E6" d="M355.244 311.63a.786.786 0 0 0-.483-1.001l-18.547-6.486a.786.786 0 0 0-1 .483l-8.865 25.347a.786.786 0 0 0 .483 1.002l18.549 6.486a.785.785 0 0 0 1-.483l8.863-25.348z" style="mix-blend-mode:multiply"/>
            <path fill="#F1EDF0" d="M352.63 311.63a.786.786 0 0 0-.483-1.001l-18.548-6.486a.786.786 0 0 0-1 .483l-8.864 25.347a.786.786 0 0 0 .483 1.002l18.548 6.486a.785.785 0 0 0 1-.483l8.864-25.348z"/>
            <path fill="#A4C2D1" d="M350.4 313.534l-17.147-5.997-7.702 22.03 17.146 5.996z"/>
            <path fill="#FE5F55" d="M343.08 309.192a.79.79 0 1 0-1.494-.522.791.791 0 1 0 1.494.522"/>
            <g fill="#FFF" opacity=".6">
                <path d="M328.59 327.363l.092-.265 13.208 4.605-.092.265zM328.879 326.538l.091-.266 13.209 4.606-.093.264zM329.167 325.712l.092-.264 13.208 4.604-.093.266zM329.456 324.887l.091-.265 13.208 4.605-.092.265zM329.744 324.062l.092-.266 13.208 4.606-.093.265zM331.568 318.846l.091-.265 13.209 4.605-.094.265zM331.856 318.02l.092-.264 13.207 4.604-.092.266zM332.145 317.195l.091-.265 13.208 4.606-.093.264zM332.433 316.37l.092-.265 13.207 4.605-.092.265zM332.72 315.545l.093-.265 7.662 2.667-.092.265zM333.394 313.62l.092-.266 13.208 4.605-.092.265zM333.683 312.794l.091-.266 13.209 4.605-.093.266zM333.971 311.968l.092-.265 13.208 4.606-.092.265zM334.26 311.144l.091-.266 13.209 4.605-.093.265zM334.548 310.318l.092-.265 7.662 2.667-.092.265zM330.033 323.236l.091-.264 13.208 4.604-.092.266zM330.321 322.412l.092-.266 13.208 4.605-.093.265zM330.61 321.586l.092-.266 13.207 4.606-.092.265zM330.898 320.76l.091-.264 10.415 3.628-.094.265z"/>
            </g>
            <path fill="#00546E" d="M331.52 318.983l.184-.529 13.21 4.594-.185.53zM331.808 318.158l.184-.53 7.332 2.54-.185.53z" opacity=".8"/>
            <path fill="#E6E6E6" d="M334.56 323.646l7.182 2.51a.308.308 0 0 0 .392-.187l.811-2.321a.308.308 0 0 0-.189-.392l-5.54-1.936-.092-.482-.37.32-1.18-.413a.308.308 0 0 0-.392.19l-.811 2.32a.308.308 0 0 0 .188.39" style="mix-blend-mode:multiply"/>
            <path fill="#84DCC6" d="M333.459 323.678l7.183 2.511a.307.307 0 0 0 .39-.188l.812-2.32a.306.306 0 0 0-.188-.391l-5.54-1.938-.092-.481-.37.32-1.182-.412a.307.307 0 0 0-.391.188l-.811 2.32a.308.308 0 0 0 .189.391"/>
            <path fill="#1B998B" d="M336.113 322.994a1.063 1.063 0 1 0-2.006-.703 1.063 1.063 0 0 0 2.006.703" opacity=".4" style="mix-blend-mode:multiply"/>
            <g fill="#FFF" opacity=".6">
                <path d="M335.193 322.406a.353.353 0 0 0-.45.217l-.117.336a.046.046 0 0 0 .029.06.047.047 0 0 0 .06-.028l.118-.337a.258.258 0 1 1 .487.17l-.117.337a.047.047 0 1 0 .089.031l.118-.336a.354.354 0 0 0-.217-.45M335.661 322.3l-.77-.27a.048.048 0 0 0-.06.03.048.048 0 0 0 .03.06l.77.27a.049.049 0 0 0 .06-.03c.009-.025-.005-.051-.03-.06"/>
            </g>
            <path fill="#1B998B" d="M338.557 323.847a1.064 1.064 0 1 0-2.01-.702 1.064 1.064 0 0 0 2.01.702" opacity=".4" style="mix-blend-mode:multiply"/>
            <path fill="#FFF" d="M337.961 323.818l-.274.115-.434-.784.071-.177.203.062.434.784zm.121.002l-.467-.845a.05.05 0 0 0-.03-.024l-.276-.084c-.029-.009-.06.004-.07.029l-.096.241a.038.038 0 0 0 .003.036l.465.844a.061.061 0 0 0 .074.022l.372-.157c.027-.01.04-.04.025-.062z" opacity=".6"/>
            <path fill="#1B998B" d="M340.999 324.701a1.063 1.063 0 1 0-2.007-.701 1.063 1.063 0 0 0 2.007.701" opacity=".4" style="mix-blend-mode:multiply"/>
            <path fill="#FFF" d="M340.052 324.046a.383.383 0 0 1 .209.205v.002c.04.093.05.204.016.308-.067.211-.278.322-.469.249-.191-.074-.292-.305-.225-.516.067-.211.277-.322.469-.248m.571.014a.04.04 0 0 0-.058-.023l-.246.131a.466.466 0 0 0-.24-.213c-.236-.09-.495.047-.578.308-.083.26.043.546.279.637.237.09.496-.047.58-.308a.538.538 0 0 0-.003-.337l.247-.132c.021-.011.03-.04.02-.063" opacity=".6"/>
            <path fill="#D07E4D" d="M348.034 313.445c.4-1.716.614-3.48.843-4.142.095-.277.575-.94.7-1.14.37-.592 1.035-1.45 1.035-2.148l.05-2.933c0-1.418.684-2.492 2.102-2.492 1.535 0 2.233 1.31 2.056 2.835v2.052c-.143 1.221.28 2.388.64 3.563.734 2.39.125 5.216-.577 7.436-.44 1.393-2.214 2.246-4.637 3.25-1.19.494-3.184.904-2.419-.528.64-1.2 4.208-2.963 3.14-6.743-.052-.186-.222-.653-.458-.66-.706-.02-.835 1.546-1.173 2.31-.475 1.073-1.227 1.507-1.686 1.393-.487-.12.099-.828.384-2.053"/>
            <path fill="#1B998B" d="M338.072 258.277c-2.502-6.299-5.348-14.222-7.51-20.252-1.596-4.456-1.82-8.467-1.82-13.2l3.488-7.101s8.948 21.274 12.272 35.843c3.324 14.568-3.13 13.016-6.43 4.71" opacity=".4" style="mix-blend-mode:multiply"/>
            <path fill="#1B998B" d="M337.228 219.484s22.806 30.66 22.763 47.822c-.025 10.344-3.825 31.399-4.728 36.253a1.418 1.418 0 0 1-1.245 1.156c-.4.043-.864.078-1.291.078-.434 0-.994-.061-1.515-.136a1.722 1.722 0 0 1-1.472-1.744c.134-6.43.543-31.793-1.162-36.867-1.955-5.822-20.964-33.578-21.337-39.702-.374-6.123 4.356-11.689 9.987-6.86M314.024 220.292s-4.54 9.815-2.957 23.914c1.584 14.1 5.254 57.036-7.577 63.52-4.062 2.053-13.342-7.04-13.342-10.412 0-3.373 3.097-14.664 6.032-24.929 2.935-10.266 10.006-51.017 10.006-51.017l7.838-1.076z"/>
            <path fill="#1B998B" d="M300.848 267.938c-.872 9.57-1.403 39.35-2.27 38.952-.47-.215-2.262-1.503-2.262-1.503-.306-2.704-.4-9.23-.136-13.244.2-3.05.476-21.095 1.035-25.183.792-2.855 7.256-26.51 7.256-26.51s-3.483 25.952-3.623 27.488" opacity=".4" style="mix-blend-mode:multiply"/>
            <path fill="#D07E4D" d="M300.545 311.528c-.642-1.518-1.12-3.11-1.437-3.685-.132-.24-.68-.773-.828-.94-.435-.486-1.183-1.17-1.295-1.814l-.512-2.695c-.227-1.306-1.03-2.188-2.335-1.963-1.415.244-1.849 1.562-1.442 2.94l.328 1.893c.325 1.101.123 2.245-.022 3.384-.295 2.32.717 4.826 1.716 6.761.628 1.215 2.398 1.72 4.791 2.26 1.175.266 3.078.326 2.144-.872-.782-1.005-4.349-2.061-3.967-5.716.018-.18.1-.636.316-.68.647-.131 1.016 1.291 1.45 1.942.607.913 1.369 1.194 1.775 1.016.428-.188-.224-.748-.682-1.83"/>
            <path fill="#1B998B" d="M301.908 223.437s-15.433 30.458-13.97 46.445c.882 9.635 2.907 28.925 4.15 33.373a1.33 1.33 0 0 0 1.255.975c.377.006.812 0 1.21-.034.403-.036.92-.14 1.399-.252a1.61 1.61 0 0 0 1.225-1.747c-.658-5.979.118-29.562 1.284-34.43 1.337-5.587 8.89-34.98 8.73-40.716-.16-5.736-.44-8.578-5.283-3.614"/>
            <path fill="#002A37" d="M330.48 191.811s-.495 3.944 1.882 6.83c2.378 2.887-1.077 5.575-1.882 7.539-.806 1.964.19 4.878-2.064 6.212-2.256 1.335-8.69 1.685-9.711-.662-1.022-2.345 4.516-21.262 11.775-19.919"/>
            <path fill="#002A37" d="M304.565 197.008c-.347 12.906 11.663 15.384 18.648 15.384 6.985 0 7.266-15.472 7.266-21.047 0-5.575-5.488-6.453-12.474-6.453-5.501 0-10.706 4.264-12.852 8.353-.58 1.103-.555 2.579-.588 3.763"/>
            <path fill="#D07E4D" d="M317.679 189.876c5.844 0 8.023 4.16 8.135 11.855.043 2.881-1.253 5.737-2.298 7.559-.774 1.355-.988 2.959-.545 4.456l1.283 4.342c.872 4.029-1.04 6.238-3.866 7.04-1.398.398-3.075.09-4.296-.698-1.453-.94-1.573-2.958-1.302-4.667l.33-1.239c.447-1.668-.52-3.465-2.208-3.835-4.499-.984-5.143-5.674-6.348-12.958-1.257-7.592 5.272-11.855 11.115-11.855"/>
            <path fill="#002A37" d="M304.072 186.497l3.352 1.019a6.63 6.63 0 0 0 3.78.023l6.69-1.94c4.053 0 10.746 2.289 9.902 8.137l-.748 4.136a3.713 3.713 0 0 1-3.348 3.031 1.312 1.312 0 0 1-2.579-.342c0-1.866-1.308-3.457-3.129-3.866-2.232-.501-4.616-.62-7.112.05-4.65 1.249-9.554-1.633-10.018-6.425a9.492 9.492 0 0 1-.045-.924c0-1.934 1.598-3.356 3.255-2.899"/>
            <path fill="#D07E4D" d="M322.593 201.873c0 1.784.664 3.23 2.381 3.23 1.718 0 2.821-2.454 2.821-4.238 0-1.784-1.103-2.223-2.82-2.223-1.718 0-2.382 1.446-2.382 3.23"/>
            <path fill="#D07E4D" d="M308.286 207.205a1.34 1.34 0 1 0 2.647.363l.005-5.693a.801.801 0 0 0-.8-.799.645.645 0 0 0-.629.507l-1.223 5.622z" opacity=".4" style="mix-blend-mode:multiply"/>
        </g>
    </g>
</svg>
